<svg width="197" height="39" viewBox="0 0 197 39" fill="none" xmlns="http://www.w3.org/2000/svg">
<path d="M5.39062 17.875C5.36719 17.875 3.46875 18.3203 4.80469 16.8438C6.07031 15.4375 10.8047 13.0469 15.6328 11.4062C19.4062 10.1406 23.2031 9.34375 25.3359 9.90625C26.7188 10.2578 26.8594 11.125 26.6016 12.1328C26.4375 12.6953 26.2031 13.3281 25.9453 13.9375C25.6406 14.6641 25.3594 15.3906 25.2188 16.0703C24.9375 17.4531 25.2422 18.5547 27.2109 18.9531C29.4609 19.4219 32.9766 15.8594 35.8828 12.9062C37.7812 10.9844 39.3984 9.34375 39.75 9.48438C40.1484 9.64844 39.6328 11.6875 37.5469 17.1719C32.7891 16.375 30.2344 18.8594 29.2734 21.625C28.8281 22.9375 28.7344 24.2969 28.9453 25.4219C29.1562 26.6172 29.7422 27.5547 30.5859 27.8828C32.25 28.5156 34.9688 26.5938 37.875 19C37.9922 18.7422 38.0625 18.5078 38.1562 18.2734C38.6016 18.3906 39.0938 18.5312 39.5859 18.6953C39.8203 18.7891 40.1016 18.6484 40.1719 18.3906C40.2656 18.1562 40.1484 17.875 39.8906 17.7812C39.3984 17.6172 38.9531 17.4766 38.5078 17.3828C40.7344 11.3125 41.0156 8.94531 40.1016 8.59375C39.1641 8.24219 37.3359 10.0703 35.2031 12.25C32.4609 15.0156 29.1562 18.3672 27.3984 18.0156C26.1797 17.7578 25.9922 17.1016 26.1562 16.2578C26.2734 15.6719 26.5547 14.9922 26.8359 14.2891C27.0938 13.6562 27.3516 13 27.5156 12.3906C27.9141 10.8438 27.7031 9.53125 25.5703 8.96875C23.2266 8.38281 19.2422 9.17969 15.3281 10.5156C10.3594 12.1797 5.4375 14.6875 4.07812 16.2109C0.726562 19.9375 5.57812 18.8125 5.60156 18.8125C5.85938 18.7656 6.02344 18.5078 5.95312 18.25C5.90625 17.9922 5.64844 17.8281 5.39062 17.875ZM36.9844 18.6484C34.3125 25.5859 32.1562 27.4609 30.9141 26.9922C30.4219 26.7812 30.0469 26.125 29.8828 25.2344C29.6953 24.2734 29.7891 23.0781 30.1875 21.9531C30.9844 19.6094 33.1641 17.5 37.1953 18.1094C37.1484 18.2734 37.0547 18.4609 36.9844 18.6484ZM41.8125 18.5312C41.5781 18.2969 40.8984 18.2266 40.3594 19.6562C39.8906 20.7812 39.5156 22.3281 40.9922 22.4922C41.625 22.5625 42.3516 22.0469 43.0078 21.25C43.4062 20.7812 43.7812 20.2188 44.0859 19.6328C45.2812 19.9375 47.0391 19.9609 49.5234 19.4922C49.7812 19.4453 49.9688 19.2109 49.8984 18.9531C49.875 18.6953 49.6172 18.5078 49.3594 18.5547C47.1094 18.9766 45.5391 18.9766 44.5078 18.7422C44.7422 18.1328 44.9297 17.5234 45 16.9609C45.0938 16.1406 44.9297 15.4141 44.4141 14.9922C43.9219 14.5703 43.3359 14.6406 42.8203 14.9922C42.3047 15.3203 41.8828 15.9766 41.7422 16.6797C41.6016 17.4297 41.7891 18.2266 42.4922 18.8594C42.6797 19.0234 42.9141 19.1641 43.1719 19.3047C42.9141 19.7969 42.5859 20.2656 42.2812 20.6406C41.8125 21.2031 41.3672 21.5547 41.0859 21.5312C40.2656 21.4375 41.7891 19 41.7891 18.9766C41.8594 18.8594 41.9297 18.6484 41.8125 18.5312ZM43.5938 18.4375C43.4062 18.3438 43.2656 18.25 43.125 18.1328C42.7031 17.7578 42.6094 17.2891 42.6797 16.8672C42.7734 16.3984 43.0547 16 43.3594 15.7891C43.5234 15.6719 43.6875 15.625 43.8047 15.7188C44.0391 15.9297 44.0859 16.3281 44.0391 16.8438C43.9922 17.3359 43.8281 17.8984 43.5938 18.4375ZM50.1797 17.2656C50.1562 17.2656 47.8125 20.7812 47.7656 21.8594C47.6953 23.1953 50.0156 21.625 51.7031 20.3125C51.4688 21.0859 51.4453 21.8359 52.0781 22.1641C52.4766 22.3516 53.0391 22.0938 53.6484 21.5312C54.1641 21.0391 54.7969 20.2891 55.4531 19.4219C55.6172 19.2109 55.5703 18.9062 55.3594 18.7656C55.1484 18.6016 54.8438 18.6484 54.6797 18.8594C52.6641 21.9531 51.5156 22.1172 53.4844 18.8359C53.6016 18.6719 53.6016 18.4141 53.4609 18.25C53.2734 18.0625 52.9688 18.0391 52.7812 18.2031C50.6953 20.2422 48.9141 21.1094 48.9141 21.1094C49.125 20.3125 50.9531 17.8047 50.9766 17.8047C51.1172 17.5703 51.0703 17.2891 50.8359 17.125C50.625 16.9844 50.3203 17.0547 50.1797 17.2656ZM58.2656 18.5547C58.9219 17.5703 59.1094 16.8672 59.0156 16.3984C58.875 15.7422 58.3125 15.5312 57.5859 15.6719C57.0703 15.7656 56.4375 16.0469 55.8984 16.4453C54.9375 17.1719 54.2109 18.25 54.6328 19.3281C54.8672 19.9375 55.3359 20.5703 55.8281 21.2031C50.9531 23.3125 46.1484 25.9141 53.0391 25.75C56.9766 25.6797 58.1484 24.7656 58.125 23.5234C58.1016 22.9141 57.75 22.2578 57.3047 21.6016C59.9297 20.5469 62.5312 19.6328 62.5547 19.6094C62.8125 19.5156 62.9297 19.2578 62.8359 19C62.7656 18.7422 62.4844 18.625 62.2266 18.7188C62.2031 18.7188 59.5781 19.6562 56.7422 20.8281L56.625 20.6875C56.1797 20.0781 55.7109 19.4688 55.5234 18.9766C55.2891 18.3906 55.8047 17.7109 56.4609 17.2188C56.8828 16.9141 57.375 16.6797 57.75 16.6094C57.9375 16.5859 58.0781 16.5625 58.0781 16.6094C58.125 16.8203 57.9609 17.2656 57.4688 18.0156C57.3047 18.2266 57.375 18.5312 57.5859 18.6953C57.7969 18.8359 58.1016 18.7656 58.2656 18.5547ZM57.1641 23.5469C57.1875 24.2266 56.2266 24.7188 53.0156 24.7891C50.1328 24.8594 53.0625 23.3828 56.4141 21.9766C56.8125 22.5625 57.1406 23.125 57.1641 23.5469ZM62.8359 19.7969C62.8359 19.7969 67.3359 19.4922 66.0703 16.9141C65.7656 16.2812 65.25 16.0938 64.6641 16.1875C64.2188 16.2578 63.7266 16.5391 63.2578 16.9375C62.8359 17.3125 62.4141 17.8047 62.1094 18.3438C61.3828 19.5625 61.1016 21.0391 62.0625 22.0469C62.0859 22.0469 62.1094 22.0703 62.1562 22.0938C63.2344 22.8203 64.8516 22.6328 66.6328 22C68.2969 21.4141 70.1484 20.4531 71.7891 19.5625C72.0234 19.4219 72.1172 19.1406 71.9766 18.9062C71.8594 18.6719 71.5781 18.6016 71.3438 18.7188C69.7266 19.6094 67.9219 20.5469 66.3047 21.1094C64.8281 21.625 63.5156 21.8125 62.7188 21.3203C62.3672 20.9453 62.1562 19.8672 62.8359 19.7969ZM62.8828 18.9297C62.8828 18.8828 62.9062 18.8594 62.9297 18.8359C63.1875 18.3906 63.5391 17.9688 63.8906 17.6641C64.2188 17.3828 64.5469 17.1719 64.8281 17.125C64.9922 17.1016 65.1094 17.1484 65.2031 17.3359C65.7656 18.4844 63.4688 18.8594 62.8828 18.9297ZM75.9141 10.375C76.2188 10.375 76.4062 10.5859 76.4531 11.0781C76.5 11.4766 76.3828 12.2969 76.0312 13.75C75.9609 14.0078 75.7031 14.1719 75.4453 14.1016C75.1875 14.0312 75.0234 13.7734 75.0938 13.5156C75.2344 12.9297 75.3281 12.4609 75.3984 12.1094C75.1172 12.5781 74.8359 13.0938 74.7656 13.2578C74.2734 14.1953 73.5234 15.9531 72.7031 18.1328C73.3125 18.3906 74.0156 18.5781 74.7656 18.6484C75.0938 18.6719 75.4219 18.6719 75.7734 18.6484C76.0312 18.625 76.2656 18.8359 76.2891 19.0938C76.3125 19.3516 76.1016 19.5859 75.8438 19.6094C75.4453 19.6328 75.0703 19.6328 74.6953 19.6094C73.8516 19.5391 73.0547 19.3047 72.3516 19.0234C71.6016 21.0391 70.8281 23.3359 70.1484 25.6094C72.2109 26.5 74.5312 27.7188 75.6797 29.3594C77.0625 31.3516 76.7578 33.8125 72.3984 36.8594C71.2266 37.6797 70.2891 38.0312 69.5625 38.0547C68.4141 38.0547 67.7812 37.2812 67.5469 35.9688C67.3359 34.8438 67.4297 33.2969 67.7344 31.5156C68.0156 29.875 68.4609 28.0469 69 26.1719C68.6953 26.0312 68.4141 25.9141 68.1328 25.7969C66.7734 25.2578 65.8125 24.8594 65.7422 24.3438C65.6953 23.8984 66.0469 23.6172 66.9141 23.5C67.1953 23.4766 67.4297 23.6641 67.4531 23.9219C67.4766 24.1328 67.3594 24.3203 67.1953 24.4141C67.5 24.5312 67.9688 24.6953 68.5078 24.9062V24.9297C68.7422 25.0234 69 25.1172 69.2578 25.2344C69.9609 22.9375 70.7344 20.6406 71.5078 18.6016C71.4141 18.5547 71.3438 18.5078 71.2734 18.4609C70.3359 17.875 69.75 17.1719 69.7031 16.7031C69.7031 16.6562 69.7031 16.6094 69.7031 16.5859C69.7266 16.3047 69.9609 16.1172 70.2188 16.1406C70.4766 16.1641 70.6875 16.375 70.6641 16.6328C70.6875 16.8438 71.1094 17.2422 71.7891 17.6641C71.8125 17.6641 71.8359 17.6641 71.8359 17.6875C72.6797 15.5312 73.4297 13.7734 73.8984 12.8359C74.0391 12.5781 74.625 11.4766 75.0703 10.8906C75.2578 10.6562 75.4688 10.4688 75.6797 10.4219C75.75 10.3984 75.8438 10.375 75.9141 10.375ZM66.7031 24.1797C66.7031 24.1797 66.7031 24.1797 66.7031 24.2266C66.7031 24.2266 66.7266 24.25 66.75 24.25C66.7266 24.2031 66.7031 24.1797 66.7031 24.1797ZM69.8906 26.5469C69.375 28.3516 68.9531 30.1094 68.6953 31.6797C68.4141 33.3438 68.2969 34.7969 68.4844 35.8047C68.625 36.625 68.9766 37.0938 69.5625 37.0938C70.1016 37.0938 70.8516 36.7656 71.8594 36.0625C75.6094 33.4375 75.9609 31.4453 74.8828 29.8984C73.8984 28.4922 71.7891 27.3672 69.8906 26.5469ZM85.3359 23.8281C85.3125 23.8516 75.375 32.3125 85.7344 28.5859C89.0859 27.3906 98.5781 21.3672 107.742 15.5781C117.469 9.41406 126.82 3.48438 127.289 3.88281C127.383 3.97656 126.938 4 126.516 4.49219C119.906 12.1562 116.578 16.8906 115.547 19.3047C115.055 20.4531 115.055 21.2266 115.477 21.625C115.898 22.0469 116.648 21.9766 117.656 21.5078C119.672 20.5469 123.211 17.7578 127.289 13.6797C128.578 12.3672 128.93 11.7344 129 11.8047C129.023 11.8516 128.719 12.4609 128.414 13.3984C127.781 15.3438 126.867 18.1562 127.547 20.125C128.297 22.2578 130.781 23.3125 137.109 21.1094C137.391 21.0156 137.531 20.7109 137.438 20.4297C137.344 20.1484 137.039 20.0078 136.758 20.1016C131.203 22.0469 129.117 21.3672 128.555 19.7734C127.992 18.1328 128.836 15.5312 129.422 13.7266C129.844 12.4375 130.148 11.4766 129.727 11.0547C129.305 10.6094 128.391 11.0781 126.539 12.9297C122.531 16.9141 119.133 19.6562 117.211 20.5469C116.625 20.8281 116.297 20.9453 116.203 20.8516C116.133 20.7812 116.227 20.4062 116.508 19.7031C117.516 17.3828 120.773 12.7422 127.312 5.17188C128.203 4.14062 128.391 3.46094 127.969 3.08594C126.914 2.17188 117.258 8.28906 107.18 14.6875C98.0625 20.4531 88.5938 26.4531 85.3594 27.6016C80.4844 29.3594 86.0156 24.625 86.0391 24.625C86.25 24.4375 86.2734 24.1094 86.0859 23.875C85.8984 23.6641 85.5703 23.6172 85.3359 23.8281ZM138.422 19.7969C138.422 19.7969 142.922 19.4922 141.656 16.9141C141.352 16.2812 140.836 16.0938 140.25 16.1875C139.805 16.2578 139.312 16.5391 138.844 16.9375C138.422 17.3125 138 17.8047 137.695 18.3438C136.969 19.5625 136.688 21.0391 137.648 22.0469C137.672 22.0469 137.695 22.0703 137.742 22.0938C138.82 22.8203 140.438 22.6328 142.219 22C143.883 21.4141 145.734 20.4531 147.375 19.5625C147.609 19.4219 147.703 19.1406 147.562 18.9062C147.445 18.6719 147.164 18.6016 146.93 18.7188C145.312 19.6094 143.508 20.5469 141.891 21.1094C140.414 21.625 139.102 21.8125 138.305 21.3203C137.953 20.9453 137.742 19.8672 138.422 19.7969ZM138.469 18.9297C138.469 18.8828 138.492 18.8594 138.516 18.8359C138.773 18.3906 139.125 17.9688 139.477 17.6641C139.805 17.3828 140.133 17.1719 140.414 17.125C140.578 17.1016 140.695 17.1484 140.789 17.3359C141.352 18.4844 139.055 18.8594 138.469 18.9297ZM148.617 18.4375C146.602 18.3438 145.312 19.4922 145.266 21.0156C145.242 21.3906 145.359 21.7188 145.617 21.9297C145.945 22.2344 146.508 22.3281 147.234 22.0234C147.539 21.9062 147.914 21.6016 148.312 21.1797C148.594 20.875 148.898 20.5234 149.203 20.1016C148.781 22 148.547 23.5234 148.641 24.3203C148.734 24.9766 149.016 25.2812 149.531 25.1641C149.766 25.1172 149.93 24.8828 149.906 24.6484C149.883 24.4375 149.672 24.2969 149.438 24.3438C149.391 24.3438 149.508 24.25 149.484 24.1328C149.367 23.1719 149.812 20.8984 150.516 18.2266C151.688 16.4453 152.953 14.2422 154.055 12.1094C155.953 8.38281 157.383 4.72656 156.984 3.46094C156.938 3.27344 156.844 3.13281 156.727 3.03906C156.352 2.6875 155.93 2.80469 155.484 3.29688C154.359 4.51562 152.531 8.96875 151.055 13.5156C150.586 15.0156 150.117 16.5156 149.742 17.9453C148.992 19.0703 148.289 20.0312 147.727 20.6406C147.422 20.9688 147.164 21.1797 147 21.25C145.477 21.8594 146.836 19.2812 148.547 19.2812C148.781 19.2812 148.992 19.0938 149.016 18.8594C149.039 18.625 148.852 18.4375 148.617 18.4375ZM151.359 15.3438C151.523 14.8047 151.688 14.2422 151.875 13.7031C153.305 9.27344 155.039 4.9375 156.07 3.83594C156.141 3.76562 156.07 3.64844 156.117 3.69531C156.141 3.69531 156.164 3.74219 156.164 3.78906C156.516 4.82031 155.133 8.24219 153.305 11.7812C152.695 12.9766 152.016 14.1953 151.359 15.3438ZM165.047 18.6484C165.047 18.6484 159.68 19.9375 157.617 20.9922C157.828 20.3125 158.016 19.375 157.594 18.3672C156.844 16.5156 154.359 19.2812 152.602 21.5781C152.836 20.8281 153.094 20.1016 153.328 19.375C158.227 15.4375 161.109 8.59375 161.953 4.53906C162.258 2.92188 162.258 1.67969 161.93 1.14062C161.438 0.34375 160.594 0.53125 159.469 2.19531C157.734 4.72656 154.828 11.2656 150.727 24.2734C150.656 24.4609 150.75 24.6953 150.914 24.8125C151.148 24.9531 151.453 24.8828 151.594 24.6719C151.594 24.6484 156.211 17.5234 156.727 18.7422C157.102 19.6328 156.773 20.5938 156.562 21.1328C156.422 21.5312 156.328 21.8125 156.492 22.0703C156.727 22.4453 157.102 22.4219 157.828 21.9766C159.445 20.9922 165.258 19.5859 165.281 19.5859C165.539 19.5156 165.703 19.2578 165.633 19C165.562 18.7422 165.305 18.5781 165.047 18.6484ZM160.266 2.73438C160.828 1.91406 161.086 1.58594 161.133 1.65625C161.32 1.98438 161.273 2.96875 160.992 4.35156C160.266 7.91406 157.922 13.7031 153.938 17.5469C156.82 9.22656 158.906 4.70312 160.266 2.73438ZM179.648 6.83594C179.719 6.83594 179.789 6.85938 179.859 6.90625C180.07 7.04688 180.117 7.375 179.977 7.63281C179.953 7.72656 179.695 8.33594 179.273 9.36719C187.617 8.99219 195.656 9.4375 195.703 9.4375C195.961 9.46094 196.172 9.67188 196.148 9.95312C196.125 10.2109 195.914 10.4219 195.656 10.3984C195.609 10.3984 187.312 9.92969 178.875 10.3281C176.602 15.9766 171.844 28.7734 173.836 32.3594C173.953 32.5938 173.859 32.8984 173.648 33.0156C173.414 33.1562 173.109 33.0625 172.992 32.8281C171.094 29.3828 174.586 18.8594 177.023 12.4141C174.516 16.3281 172.828 18.5547 171.75 19.5625C171.188 20.1016 170.742 20.3594 170.367 20.3828C169.875 20.3828 169.617 20.0547 169.547 19.4453C169.5 19.1172 169.523 18.6484 169.641 18.0859C168.727 18.9766 167.414 19.9375 165.938 20.0781C165.07 20.1484 164.695 19.7734 164.625 19.1875C164.602 18.7188 164.789 18.1328 165.164 17.5938C165.469 17.125 165.914 16.6328 166.406 16.2812C167.438 15.5547 168.656 15.2969 169.477 16.4453C169.547 16.5156 169.57 16.6094 169.57 16.7266C169.969 16.2812 170.203 15.9297 170.203 15.9297C170.391 15.6484 170.719 15.5781 170.93 15.7656C171.07 15.8828 171.117 16.1172 171.047 16.3516C170.672 17.6172 170.461 18.6016 170.531 19.1172C170.531 19.1641 170.484 19.2109 170.508 19.2109C170.625 19.2109 170.836 19.0469 171.211 18.7188C172.336 17.6406 174.234 15.0859 177.141 10.4219C173.344 10.6562 169.641 11.0781 166.734 11.8047C164.227 12.4609 163.312 12.6016 163.312 12.625C163.336 12.7188 163.734 12.4844 164.367 12.4609C165.211 12.4375 166.242 12.3203 167.109 12.1797C167.906 12.0156 168.586 12.0625 168.562 11.9922C168.516 11.7344 168.68 11.4766 168.938 11.4297C169.219 11.3828 169.453 11.5703 169.5 11.8281C169.617 12.4375 168.609 12.8828 167.297 13.1172C166.359 13.2812 165.281 13.3984 164.391 13.4219C163.336 13.4688 162.492 13.3047 162.375 12.8594C162.258 12.3672 163.289 11.6875 166.5 10.8906C169.617 10.0938 173.672 9.64844 177.773 9.4375C178.219 8.71094 178.688 7.96094 179.156 7.14062C179.273 6.95312 179.461 6.83594 179.648 6.83594ZM167.883 16.8438C167.531 16.8438 167.18 17.0078 166.828 17.2422C166.477 17.5 166.148 17.8516 165.914 18.2031C165.727 18.4844 165.609 18.7422 165.633 18.8594C165.633 18.9297 165.75 18.9531 166.008 18.9297C167.133 18.8125 168.141 18.1094 168.891 17.4297C168.797 17.4062 168.727 17.3359 168.68 17.2656C168.445 16.9609 168.164 16.8438 167.883 16.8438Z" fill="#005FB8"/>
<path d="M3 23.1953H177.117V24.3906H3V23.1953Z" fill="#005FB8"/>
</svg>
