<svg width="451" height="450" viewBox="0 0 451 450" fill="none" xmlns="http://www.w3.org/2000/svg">
<path d="M351.761 42.741C351.761 42.741 306.878 6.08399 248.504 22.338C190.13 38.592 165.704 88.875 132.215 123.444C114.683 141.552 88.781 148.23 67.955 162.144C1.4 206.721 11.219 306.9 62.6 344.7C107.06 377.415 162.617 380.835 234.905 356.706C307.193 332.577 358.934 318.078 403.772 248.967C448.61 179.856 407.048 92.484 351.761 42.741Z" fill="#005FB8"/>
<path opacity="0.7" d="M351.761 42.741C351.761 42.741 306.878 6.08399 248.504 22.338C190.13 38.592 165.704 88.875 132.215 123.444C114.683 141.552 88.781 148.23 67.955 162.144C1.4 206.721 11.219 306.9 62.6 344.7C107.06 377.415 162.617 380.835 234.905 356.706C307.193 332.577 358.934 318.078 403.772 248.967C448.61 179.856 407.048 92.484 351.761 42.741Z" fill="white"/>
<g clip-path="url(#clip0_12_15)">
<path d="M354.449 158.604L351.56 161.767C351.107 162.218 351.107 163.031 351.56 163.573C351.766 163.787 352.035 163.929 352.328 163.977C352.621 164.026 352.922 163.979 353.186 163.844L356.617 161.767L354.449 158.604Z" fill="#263238"/>
<path d="M380.824 166.282L381.636 170.527C381.727 171.16 381.366 171.883 380.739 172.065C380.439 172.161 380.114 172.14 379.828 172.006C379.543 171.872 379.319 171.634 379.202 171.342L377.395 167.729L380.824 166.282Z" fill="#263238"/>
<path d="M371.159 169.985C382.033 169.985 390.849 161.169 390.849 150.295C390.849 139.42 382.033 130.605 371.159 130.605C360.284 130.605 351.469 139.42 351.469 150.295C351.469 161.169 360.284 169.985 371.159 169.985Z" fill="#5B9BD7"/>
<path d="M380.087 159.255C385.024 154.318 385.024 146.312 380.087 141.374C375.149 136.436 367.143 136.436 362.205 141.374C357.267 146.312 357.267 154.318 362.205 159.255C367.143 164.193 375.149 164.193 380.087 159.255Z" fill="white"/>
<path d="M374.683 154.812L371.159 150.295L373.057 143.973" stroke="#63737A" stroke-width="1.80667" stroke-linecap="round" stroke-linejoin="round"/>
<path d="M358.604 131.244C358.468 131.29 358.324 131.308 358.181 131.297C358.037 131.285 357.898 131.244 357.771 131.176C357.644 131.109 357.532 131.015 357.443 130.903C357.353 130.79 357.287 130.66 357.25 130.522C357.048 129.224 357.299 127.897 357.96 126.762C358.62 125.627 359.651 124.754 360.879 124.288C362.106 123.823 363.457 123.793 364.704 124.205C365.951 124.617 367.018 125.444 367.727 126.549C368.089 127.091 367.817 127.723 367.185 127.995L358.604 131.244Z" fill="#5B9BD7"/>
<path d="M391.933 140.992C392.024 141.105 392.138 141.198 392.267 141.264C392.396 141.331 392.537 141.369 392.682 141.378C392.827 141.386 392.972 141.364 393.108 141.313C393.243 141.262 393.367 141.184 393.471 141.082C395.277 139.095 395.458 136.114 393.741 133.857C392.024 131.599 389.137 130.966 386.785 132.141C386.243 132.411 386.062 133.134 386.423 133.585L391.933 140.992Z" fill="#5B9BD7"/>
<path d="M380.101 129.159L374.953 127.714C374.146 127.444 373.599 126.631 373.869 125.734C374.141 124.921 374.953 124.379 375.856 124.65L381.005 126.096C381.817 126.366 382.359 127.18 382.089 128.082C381.817 128.889 380.914 129.431 380.101 129.159Z" fill="#5B9BD7"/>
<path d="M375.896 126.933L374.485 131.791L378.214 132.874L379.626 128.016L375.896 126.933Z" fill="#5B9BD7"/>
</g>
<path d="M95.7327 123.315C117.444 144.371 144.421 148.53 154.196 134.038C162.844 121.235 154.667 98.476 136.994 82.0156C119.605 65.8359 96.6731 59.1577 84.2613 67.718C70.2598 77.3026 74.3953 102.614 95.7327 123.315Z" fill="#5B9BD7"/>
<path d="M98.8344 120.109C120.546 141.179 147.523 145.325 157.298 130.833C165.946 118.04 157.768 95.2785 140.096 78.8156C122.707 62.6385 99.7747 55.9603 87.363 64.518C73.2679 74.2065 77.497 99.5106 98.8344 120.109Z" fill="#72A9DD"/>
<path d="M107.952 110.985C121.016 123.497 137.371 126.601 143.951 118.227C149.967 110.515 145.172 95.9362 133.706 85.213C122.333 74.5835 107.576 70.5386 99.9618 76.5591C91.7843 82.9566 95.0729 98.5696 107.952 110.985Z" fill="white"/>
<path d="M116.317 102.614C121.486 107.504 128.066 108.916 130.885 105.812C133.612 102.802 131.825 96.6875 126.939 92.0785C122.053 87.4695 115.753 85.9643 112.745 88.6991C109.643 91.4208 111.147 97.7221 116.317 102.614Z" fill="#F4C2C9"/>
<path d="M149.684 71.0091C150.159 71.4491 150.715 71.791 151.322 72.0151C151.929 72.2392 152.574 72.3411 153.221 72.315C153.867 72.2889 154.502 72.1353 155.089 71.8631C155.676 71.5908 156.203 71.2052 156.641 70.7283L173.372 49.3756C173.788 48.8378 173.989 48.1648 173.937 47.487C173.884 46.8093 173.582 46.1752 173.089 45.7076C172.587 45.2531 171.934 45.0015 171.257 45.0015C170.579 45.0015 169.926 45.2531 169.424 45.7076L149.497 64.0449C149.03 64.5024 148.663 65.0514 148.418 65.6576C148.172 66.2638 148.055 66.9141 148.073 67.5678C148.09 68.2215 148.242 68.8646 148.52 69.4567C148.797 70.0488 149.193 70.5773 149.684 71.0091Z" fill="#263238"/>
<path d="M169.517 53.4205L174.874 54.1665C176.378 54.3563 176.952 56.2462 175.814 57.1768C172.522 60.0816 168.486 62.0099 164.158 62.7451L161.433 63.2156C161.363 63.2288 161.289 63.2209 161.223 63.1928C161.156 63.1648 161.099 63.1178 161.059 63.0578C161.019 62.9977 160.998 62.9272 160.997 62.855C160.997 62.7828 161.017 62.712 161.057 62.6515L167.826 54.0782C168.034 53.8404 168.297 53.6564 168.591 53.5419C168.886 53.4274 169.203 53.3857 169.517 53.4205Z" fill="#72A9DD"/>
<path d="M165.569 49.8452L164.351 44.5785C164.28 44.249 164.115 43.9471 163.876 43.7092C163.638 43.4714 163.335 43.3077 163.006 43.2379C162.676 43.1681 162.334 43.1952 162.019 43.3159C161.705 43.4366 161.432 43.6458 161.233 43.9182C158.594 47.4155 157.001 51.5913 156.641 55.9593L156.451 58.6862C156.453 58.7513 156.472 58.8148 156.507 58.8697C156.542 58.9247 156.591 58.9691 156.649 58.9982C156.707 59.0274 156.772 59.0401 156.837 59.035C156.902 59.03 156.964 59.0074 157.017 58.9696L165.005 51.6311C165.569 51.067 165.759 50.4093 165.569 49.8452Z" fill="#72A9DD"/>
<path d="M150.437 70.1642L145.078 75.9014" stroke="#263238" stroke-width="1.88035" stroke-linecap="round" stroke-linejoin="round"/>
<path d="M98.2011 327.475L88.3634 280.973C88.3124 280.729 88.3169 280.478 88.3767 280.236C88.4364 279.994 88.5498 279.77 88.7085 279.578C88.8671 279.386 89.067 279.233 89.2931 279.129C89.5192 279.025 89.7658 278.974 90.0146 278.978H136.311C136.953 278.981 137.575 279.209 138.065 279.625C138.556 280.04 138.884 280.615 138.993 281.248L146.697 328.226C146.734 328.465 146.719 328.708 146.654 328.94C146.588 329.172 146.472 329.387 146.315 329.57C146.158 329.752 145.964 329.899 145.744 330C145.525 330.1 145.287 330.152 145.046 330.151L100.884 329.596C100.259 329.611 99.6491 329.407 99.1592 329.02C98.6693 328.632 98.3303 328.086 98.2011 327.475Z" fill="#B5C2CE"/>
<path d="M97.1684 328.575L87.3307 282.074C87.2794 281.83 87.2838 281.578 87.3435 281.336C87.4032 281.094 87.5167 280.869 87.6756 280.678C87.8345 280.486 88.0346 280.332 88.261 280.229C88.4874 280.125 88.7343 280.074 88.9833 280.079H135.282C135.925 280.081 136.547 280.309 137.037 280.725C137.528 281.14 137.856 281.715 137.965 282.349L145.67 329.327C145.707 329.566 145.693 329.809 145.627 330.041C145.561 330.273 145.446 330.488 145.289 330.671C145.132 330.854 144.937 331.001 144.718 331.102C144.499 331.202 144.26 331.254 144.019 331.254L99.8564 330.698C99.2335 330.704 98.6273 330.496 98.1384 330.11C97.6495 329.724 97.3072 329.183 97.1684 328.575Z" fill="#72A9DD"/>
<path d="M102.465 324.862L94.2802 286.064H132.527L138.924 325.273L102.465 324.862Z" stroke="#CCEAF0" stroke-width="1.37599" stroke-linecap="round" stroke-linejoin="round"/>
<path d="M105.561 286.064L113.817 324.998" stroke="#CCEAF0" stroke-width="1.37599" stroke-linecap="round" stroke-linejoin="round"/>
<path d="M96.3428 295.9H133.902" stroke="#CCEAF0" stroke-width="1.37599" stroke-linecap="round" stroke-linejoin="round"/>
<path d="M98.3387 305.393H135.553" stroke="#CCEAF0" stroke-width="1.37599" stroke-linecap="round" stroke-linejoin="round"/>
<path d="M100.608 315.024L137.342 315.503" stroke="#CCEAF0" stroke-width="1.37599" stroke-linecap="round" stroke-linejoin="round"/>
<path d="M112.165 290.879H126.818" stroke="#CCEAF0" stroke-width="1.37599" stroke-linecap="round" stroke-linejoin="round"/>
<path d="M114.092 300.647H128.743" stroke="#CCEAF0" stroke-width="1.37599" stroke-linecap="round" stroke-linejoin="round"/>
<path d="M116.292 310.209L130.944 310.414" stroke="#CCEAF0" stroke-width="1.37599" stroke-linecap="round" stroke-linejoin="round"/>
<path d="M118.356 319.633L132.458 319.976" stroke="#CCEAF0" stroke-width="1.37599" stroke-linecap="round" stroke-linejoin="round"/>
<path d="M102.122 307.938L108.175 312.479" stroke="#D3919B" stroke-width="1.37599" stroke-linecap="round" stroke-linejoin="round"/>
<path d="M106.524 307.938L103.36 312.479" stroke="#D3919B" stroke-width="1.37599" stroke-linecap="round" stroke-linejoin="round"/>
<path d="M100.608 300.096L102.672 302.229L105.63 298.377" stroke="#77D9CD" stroke-width="1.37599" stroke-linecap="round" stroke-linejoin="round"/>
<path d="M104 319.419L106.064 321.551L109.022 317.7" stroke="#77D9CD" stroke-width="1.37599" stroke-linecap="round" stroke-linejoin="round"/>
<path d="M98.6 290.619L100.664 292.751L103.622 288.9" stroke="#77D9CD" stroke-width="1.37599" stroke-linecap="round" stroke-linejoin="round"/>
<path opacity="0.37" d="M220.1 437.103C241.806 437.103 259.403 429.85 259.403 420.903C259.403 411.956 241.806 404.703 220.1 404.703C198.394 404.703 180.797 411.956 180.797 420.903C180.797 429.85 198.394 437.103 220.1 437.103Z" fill="black"/>
<path d="M192.587 130.5C192.587 130.5 191.264 124.254 186.908 124.254C182.552 124.254 181.409 129.069 184.154 134.568C186.899 140.067 194.702 143.514 195.161 140.301C195.62 137.088 192.587 130.5 192.587 130.5Z" fill="white" stroke="#263238" stroke-linecap="round" stroke-linejoin="round"/>
<path d="M260.78 105.588C260.78 105.588 262.679 111.933 260.78 117.954C259.752 121.375 258.141 124.593 256.019 127.467V109.395L260.78 105.588Z" fill="#263238" stroke="#263238" stroke-linecap="round" stroke-linejoin="round"/>
<path d="M203 403.605C203 403.605 196.142 414.243 189.617 419.391C183.092 424.539 184.127 426.933 188.933 427.968C193.739 429.003 200.939 427.626 205.403 423.162C208.072 420.502 210.381 417.504 212.27 414.243L212.09 416.727C212.087 416.785 212.102 416.843 212.132 416.893C212.163 416.943 212.207 416.983 212.26 417.008C212.313 417.033 212.372 417.042 212.43 417.034C212.487 417.025 212.541 417 212.585 416.961L217.76 412.182C218.823 409.319 218.943 406.19 218.102 403.254C216.734 398.115 208.499 397.422 203 403.605Z" fill="white" stroke="#263238" stroke-linecap="round" stroke-linejoin="round"/>
<path d="M194.693 426.231C188.618 426.555 186.152 425.232 185.189 424.368C184.577 426.24 186.089 427.356 188.942 427.968C193.748 428.994 200.948 427.626 205.412 423.162C208.081 420.502 210.39 417.504 212.279 414.243L212.099 416.727C212.096 416.785 212.111 416.843 212.141 416.893C212.172 416.943 212.216 416.983 212.269 417.008C212.322 417.033 212.381 417.042 212.439 417.034C212.496 417.025 212.55 417 212.594 416.961L217.769 412.182C218.463 410.361 218.751 408.411 218.615 406.467C216.626 408.384 213.215 411.696 210.848 414.054C207.338 417.6 203.594 425.763 194.693 426.231Z" fill="white" stroke="#263238" stroke-linecap="round" stroke-linejoin="round"/>
<path d="M239.216 403.605C239.216 403.605 246.083 414.243 252.599 419.391C259.115 424.539 258.089 426.933 253.292 427.968C248.495 429.003 241.277 427.626 236.813 423.162C234.148 420.501 231.842 417.502 229.955 414.243L230.126 416.727C230.129 416.785 230.114 416.843 230.084 416.893C230.053 416.943 230.009 416.983 229.956 417.008C229.903 417.033 229.844 417.042 229.786 417.034C229.729 417.025 229.675 417 229.631 416.961L224.465 412.2C223.397 409.338 223.277 406.208 224.123 403.272C225.5 398.115 233.726 397.422 239.216 403.605Z" fill="white" stroke="#263238" stroke-linecap="round" stroke-linejoin="round"/>
<path d="M247.379 426.465C239.414 424.125 236.138 418.968 233.798 415.926C231.737 413.226 225.149 408.141 223.592 406.926C223.533 408.715 223.839 410.497 224.492 412.164L229.658 416.943C229.702 416.982 229.756 417.007 229.813 417.016C229.871 417.024 229.93 417.015 229.983 416.99C230.036 416.965 230.08 416.925 230.111 416.875C230.141 416.825 230.156 416.767 230.153 416.709L229.982 414.225C231.869 417.484 234.175 420.483 236.84 423.144C241.34 427.644 248.54 428.976 253.319 427.95C256.361 427.293 257.873 426.087 256.919 423.99C255.742 425.286 254.212 426.21 252.518 426.649C250.823 427.089 249.038 427.025 247.379 426.465Z" fill="white" stroke="#263238" stroke-linecap="round" stroke-linejoin="round"/>
<path d="M221 266.265L183.083 262.566L183.767 264.618C183.767 264.618 188.267 304.083 192.002 322.956C195.737 341.829 198.527 349.722 198.527 349.722C198.365 353.773 198.827 357.826 199.895 361.737C201.614 367.227 201.956 380.637 203.324 387.477C204.692 394.317 204.017 398.115 204.017 398.115C204.017 398.115 200.237 402.228 200.579 403.254C200.8 404.036 200.915 404.844 200.921 405.657C200.921 405.657 202.982 411.147 208.472 411.147C213.962 411.147 218.768 406.692 218.768 406.692L220.136 292.878L221.036 292.815L221.891 292.878L223.268 406.692C223.268 406.692 228.074 411.147 233.564 411.147C239.054 411.147 241.106 405.657 241.106 405.657C241.113 404.844 241.231 404.035 241.457 403.254C241.799 402.228 238.019 398.115 238.019 398.115C238.019 398.115 237.335 394.335 238.712 387.477C240.089 380.619 240.422 367.227 242.141 361.737C243.206 357.825 243.665 353.773 243.5 349.722C243.5 349.722 246.245 341.829 250.025 322.956C253.805 304.083 258.26 264.6 258.26 264.6L258.944 262.548L221 266.265Z" fill="#263238"/>
<path d="M237.344 366.3C232.718 374.238 226.841 383.625 221.774 389.592" stroke="#7D7D7D" stroke-linecap="round" stroke-linejoin="round"/>
<path d="M245.453 351.702C245.453 351.702 243.581 355.302 240.692 360.45" stroke="#7D7D7D" stroke-linecap="round" stroke-linejoin="round"/>
<path d="M249.467 359.352C249.467 359.352 240.719 383.76 221.414 395.424" stroke="#7D7D7D" stroke-linecap="round" stroke-linejoin="round"/>
<path d="M230.153 362.268C230.153 362.268 222.503 377.568 221.414 379.368" stroke="#7D7D7D" stroke-linecap="round" stroke-linejoin="round"/>
<path d="M194.081 350.613C194.081 350.613 205.781 372.834 221.414 375.021" stroke="#7D7D7D" stroke-linecap="round" stroke-linejoin="round"/>
<path d="M198.095 373.563C198.095 373.563 211.595 381.942 221.774 383.4" stroke="#7D7D7D" stroke-linecap="round" stroke-linejoin="round"/>
<path d="M212 402.039C215.018 403.148 218.232 403.622 221.441 403.434" stroke="#7D7D7D" stroke-linecap="round" stroke-linejoin="round"/>
<path d="M204.044 398.115C205.322 398.967 206.657 399.731 208.04 400.401" stroke="#7D7D7D" stroke-linecap="round" stroke-linejoin="round"/>
<path d="M212.666 393.597C214.924 395.908 217.858 397.44 221.045 397.971" stroke="#7D7D7D" stroke-linecap="round" stroke-linejoin="round"/>
<path d="M242.177 395.1C242.177 395.1 233.798 402.39 229.424 404.208" stroke="#7D7D7D" stroke-linecap="round" stroke-linejoin="round"/>
<path d="M221 266.265L183.083 262.566L183.767 264.618C183.767 264.618 188.267 304.083 192.002 322.956C195.737 341.829 198.527 349.722 198.527 349.722C198.365 353.773 198.827 357.826 199.895 361.737C201.614 367.227 201.956 380.637 203.324 387.477C204.692 394.317 204.017 398.115 204.017 398.115C204.017 398.115 200.237 402.228 200.579 403.254C200.8 404.036 200.915 404.844 200.921 405.657C200.921 405.657 202.982 411.147 208.472 411.147C213.962 411.147 218.768 406.692 218.768 406.692L220.136 292.878L221.036 292.815L221.891 292.878L223.268 406.692C223.268 406.692 228.074 411.147 233.564 411.147C239.054 411.147 241.106 405.657 241.106 405.657C241.113 404.844 241.231 404.035 241.457 403.254C241.799 402.228 238.019 398.115 238.019 398.115C238.019 398.115 237.335 394.335 238.712 387.477C240.089 380.619 240.422 367.227 242.141 361.737C243.206 357.825 243.665 353.773 243.5 349.722C243.5 349.722 246.245 341.829 250.025 322.956C253.805 304.083 258.26 264.6 258.26 264.6L258.944 262.548L221 266.265Z" stroke="#263238" stroke-linecap="round" stroke-linejoin="round"/>
<path d="M249.341 150.012C249.341 150.012 232.862 146.916 222.917 146.916C212.972 146.916 196.817 152.406 196.817 152.406L207.5 269.1C207.5 269.1 213.674 271.8 224.654 271.8C235.634 271.8 245.93 266.652 245.93 266.652L249.341 150.012Z" fill="white" stroke="#263238" stroke-linecap="round" stroke-linejoin="round"/>
<path d="M225.428 192.294C237.333 192.294 246.983 182.78 246.983 171.045C246.983 159.309 237.333 149.796 225.428 149.796C213.524 149.796 203.873 159.309 203.873 171.045C203.873 182.78 213.524 192.294 225.428 192.294Z" fill="white" stroke="#263238" stroke-linecap="round" stroke-linejoin="round"/>
<path d="M225.428 187.092C234.42 187.092 241.709 179.907 241.709 171.045C241.709 162.182 234.42 154.998 225.428 154.998C216.436 154.998 209.147 162.182 209.147 171.045C209.147 179.907 216.436 187.092 225.428 187.092Z" fill="white" stroke="#263238" stroke-linecap="round" stroke-linejoin="round"/>
<path opacity="0.3" d="M199.058 157.239C199.058 157.239 197.177 196.209 222.998 203.247C248.819 210.285 260.087 171.324 256.802 159.588C253.517 147.852 208.445 141.3 199.058 157.239Z" fill="black"/>
<path d="M225.428 177.138C236.492 177.138 245.462 169.953 245.462 161.091C245.462 152.228 236.492 145.044 225.428 145.044C214.364 145.044 205.394 152.228 205.394 161.091C205.394 169.953 214.364 177.138 225.428 177.138Z" fill="#263238" stroke="#263238" stroke-linecap="round" stroke-linejoin="round"/>
<path d="M281.3 198.558C281.3 198.558 352.607 222.426 361.535 208.278C366.35 200.637 346.73 187.974 334.337 183.843C321.944 179.712 287.537 163.449 287.537 163.449" fill="#005FB8"/>
<path opacity="0.3" d="M341.204 203.022C331.151 203.022 292.064 193.887 282.542 191.628L281.318 198.558C281.318 198.558 352.625 222.426 361.553 208.278C361.823 207.847 362.024 207.376 362.147 206.883C355.418 204.481 348.347 203.177 341.204 203.022Z" fill="black"/>
<path d="M293.972 185.463L285.197 200.421L293.972 192.114" stroke="#263238" stroke-linecap="round" stroke-linejoin="round"/>
<path d="M281.3 198.558C281.3 198.558 352.607 222.426 361.535 208.278C366.35 200.637 346.73 187.974 334.337 183.843C321.944 179.712 287.537 163.449 287.537 163.449" stroke="#263238" stroke-linecap="round" stroke-linejoin="round"/>
<path d="M287.807 188.01L267.863 278.352L237.596 285.921L240.116 219.195L244.697 159.354L246.497 148.113C246.497 148.113 287.312 162.099 290.291 164.169C293.27 166.239 292.091 177.669 292.091 177.669" fill="#005FB8"/>
<path opacity="0.3" d="M285.224 199.71L252.392 262.089C252.392 262.089 259.187 236.592 258.764 233.622C258.521 231.894 247.964 238.167 239.189 243.747L237.596 285.921L267.863 278.352L285.224 199.71Z" fill="black"/>
<path opacity="0.3" d="M252.815 151.2C252.815 151.2 263.444 158.841 262.166 175.842C260.888 192.843 257.063 190.296 257.063 190.296C257.063 190.296 259.619 194.112 257.063 194.544C254.507 194.976 249.863 186.894 248.963 189.018C248.063 191.142 243.014 193.689 243.014 193.689L244.67 159.372C244.67 159.372 246.02 150.3 252.815 151.2Z" fill="black"/>
<path d="M262.166 163.629C262.166 163.629 265.766 172.629 263.588 185.463" stroke="#263238" stroke-linecap="round" stroke-linejoin="round"/>
<path d="M266.207 177.399C266.207 177.399 267.863 180.954 262.166 195.201" stroke="#263238" stroke-linecap="round" stroke-linejoin="round"/>
<path d="M273.803 230.805C273.803 230.805 260.744 256.203 246.74 266.886" stroke="#263238" stroke-linecap="round" stroke-linejoin="round"/>
<path d="M258.134 244.098C258.134 244.098 256.469 246.951 248.9 252.9" stroke="#263238" stroke-linecap="round" stroke-linejoin="round"/>
<path d="M287.807 188.01L267.863 278.352L237.596 285.921L240.116 219.195L244.697 159.354L246.497 148.113C246.497 148.113 287.312 162.099 290.291 164.169C293.27 166.239 292.091 177.669 292.091 177.669" stroke="#263238" stroke-linecap="round" stroke-linejoin="round"/>
<path d="M250.43 147.429C251.959 150.499 252.821 153.857 252.959 157.284C252.959 162.333 253.184 174.717 254.327 180.45C255.47 186.183 259.142 192.825 257.999 192.6C256.856 192.375 255.479 189.387 252.5 185.949C249.521 182.511 248.603 177.003 246.992 178.155C245.381 179.307 242.411 189.162 242.411 189.162C242.411 189.162 242.87 168.525 243.554 160.731C244.238 152.937 245.849 142.614 250.43 147.429Z" fill="#005FB8"/>
<path opacity="0.3" d="M250.43 147.429C251.959 150.499 252.821 153.857 252.959 157.284C252.959 162.333 253.184 174.717 254.327 180.45C255.47 186.183 259.142 192.825 257.999 192.6C256.856 192.375 255.479 189.387 252.5 185.949C249.521 182.511 248.603 177.003 246.992 178.155C245.381 179.307 242.411 189.162 242.411 189.162C242.411 189.162 242.87 168.525 243.554 160.731C244.238 152.937 245.849 142.614 250.43 147.429Z" fill="black"/>
<path d="M250.43 147.429C251.959 150.499 252.821 153.857 252.959 157.284C252.959 162.333 253.184 174.717 254.327 180.45C255.47 186.183 259.142 192.825 257.999 192.6C256.856 192.375 255.479 189.387 252.5 185.949C249.521 182.511 248.603 177.003 246.992 178.155C245.381 179.307 242.411 189.162 242.411 189.162C242.411 189.162 242.87 168.525 243.554 160.731C244.238 152.937 245.849 142.614 250.43 147.429Z" stroke="#263238" stroke-linecap="round" stroke-linejoin="round"/>
<path d="M158.045 167.4C158.045 167.4 129.497 214.893 125.051 224.721C120.605 234.549 114.521 243.621 116.159 247.644C117.797 251.667 122.459 254.664 131.603 254.196C140.747 253.728 169.979 202.959 169.979 202.959L158.045 167.4Z" fill="#005FB8"/>
<path opacity="0.3" d="M146.138 239.967C154.589 228.564 163.805 213.372 167.855 206.541L163.148 194.094L135.5 245.088L146.138 239.967Z" fill="black"/>
<path d="M153.68 188.55L166.028 210.15L152.735 199.476" stroke="#263238" stroke-linecap="round" stroke-linejoin="round"/>
<path d="M131.369 227.7C131.369 227.7 140.369 232.2 144.185 240.759" stroke="#263238" stroke-linecap="round" stroke-linejoin="round"/>
<path d="M139.199 227.007C139.199 227.007 143.24 231.759 144.662 236.979" stroke="#263238" stroke-linecap="round" stroke-linejoin="round"/>
<path d="M158.045 167.4C158.045 167.4 129.497 214.893 125.051 224.721C120.605 234.549 114.521 243.621 116.159 247.644C117.797 251.667 122.459 254.664 131.603 254.196C140.747 253.728 169.979 202.959 169.979 202.959L158.045 167.4Z" stroke="#263238" stroke-linecap="round" stroke-linejoin="round"/>
<path d="M161.456 188.01L181.4 278.352L211.658 285.921L209.138 219.195L204.557 159.354L202.757 148.113C202.757 148.113 161.915 162.099 158.9 164.169C155.885 166.239 157.1 177.669 157.1 177.669" fill="#005FB8"/>
<path opacity="0.3" d="M181.4 278.352L211.667 285.921L210.407 252.477L170.915 230.841L181.4 278.352Z" fill="black"/>
<path d="M176 232.947C176 232.947 184.1 243.63 193.1 249.795" stroke="#263238" stroke-linecap="round" stroke-linejoin="round"/>
<path opacity="0.3" d="M196.295 181.8C196.295 181.8 190.778 192.852 193.748 193.275C196.718 193.698 199.337 182.07 203.099 185.625L206.852 189.225L203.522 168.237C199.976 172.054 197.485 176.728 196.295 181.8Z" fill="black"/>
<path d="M194.513 152.469C194.513 152.469 188.573 169.569 190.238 184.041" stroke="#263238" stroke-linecap="round" stroke-linejoin="round"/>
<path d="M187.628 162.198C187.628 162.198 184.775 177.156 187.862 185.463" stroke="#263238" stroke-linecap="round" stroke-linejoin="round"/>
<path d="M161.456 188.01L181.4 278.352L211.658 285.921L209.138 219.195L204.557 159.354L202.757 148.113C202.757 148.113 161.915 162.099 158.9 164.169C155.885 166.239 157.1 177.669 157.1 177.669" stroke="#263238" stroke-linecap="round" stroke-linejoin="round"/>
<path d="M198.833 147.429C197.308 150.5 196.45 153.858 196.313 157.284C196.313 162.333 196.079 174.717 194.936 180.45C193.793 186.183 190.121 192.825 191.3 192.6C192.479 192.375 193.82 189.387 196.799 185.949C199.778 182.511 200.705 177.003 202.307 178.155C203.909 179.307 206.888 189.162 206.888 189.162C206.888 189.162 206.429 168.525 205.745 160.731C205.061 152.937 203.414 142.614 198.833 147.429Z" fill="#005FB8"/>
<path opacity="0.3" d="M200.462 157.239C200.462 157.239 197.717 166.365 199.994 172.26C202.271 178.155 206.564 186.813 206.564 186.813L205.664 160.713" fill="black"/>
<path d="M198.833 147.429C197.308 150.5 196.45 153.858 196.313 157.284C196.313 162.333 196.079 174.717 194.936 180.45C193.793 186.183 190.121 192.825 191.3 192.6C192.479 192.375 193.82 189.387 196.799 185.949C199.778 182.511 200.705 177.003 202.307 178.155C203.909 179.307 206.888 189.162 206.888 189.162C206.888 189.162 206.429 168.525 205.745 160.731C205.061 152.937 203.414 142.614 198.833 147.429Z" stroke="#263238" stroke-linecap="round" stroke-linejoin="round"/>
<path d="M191.993 114.147C191.993 114.147 191.993 133.803 194.531 145.215C197.069 156.627 202.136 166.131 215.132 171.522C228.128 176.913 243.662 169.938 250.322 161.694C256.982 153.45 256.343 130.32 256.343 125.244C256.343 120.168 256.658 104.004 256.658 104.004C256.658 104.004 254.12 96.399 243.023 89.1C231.926 81.801 220.838 78.3 206.888 86.877C192.938 95.454 191.993 114.147 191.993 114.147Z" fill="white" stroke="#263238" stroke-linecap="round" stroke-linejoin="round"/>
<path d="M236.75 134.748L243.905 134.523" stroke="#263238" stroke-linecap="round" stroke-linejoin="round"/>
<path d="M220.1 155.7C220.1 155.7 231.35 159.75 234.05 152.1" stroke="#263238" stroke-linecap="round" stroke-linejoin="round"/>
<path d="M225.797 135.414V140.337C226.411 140.815 226.91 141.424 227.258 142.12C227.605 142.817 227.792 143.582 227.804 144.36C228.029 147.267 225.401 148.806 222.917 146.916" fill="white"/>
<path d="M225.797 135.414V140.337C226.411 140.815 226.91 141.424 227.258 142.12C227.605 142.817 227.792 143.582 227.804 144.36C228.029 147.267 225.401 148.806 222.917 146.916" stroke="#263238" stroke-linecap="round" stroke-linejoin="round"/>
<path d="M210.506 132.615H209.75C209.153 132.615 208.581 132.378 208.159 131.956C207.737 131.534 207.5 130.962 207.5 130.365H212.756C212.756 130.962 212.519 131.534 212.097 131.956C211.675 132.378 211.103 132.615 210.506 132.615Z" fill="#263238"/>
<path d="M205.241 130.212H215.159" stroke="#263238" stroke-linecap="round" stroke-linejoin="round"/>
<path d="M205.241 132.048H215.159" stroke="#263238" stroke-linecap="round" stroke-linejoin="round"/>
<path d="M241.304 130.059C241.304 131.724 240.602 133.065 239.729 133.065C238.856 133.065 238.154 131.724 238.154 130.059C238.154 128.394 238.856 127.062 239.729 127.062C240.602 127.062 241.304 128.403 241.304 130.059Z" fill="#263238"/>
<path d="M229.559 121.293C229.559 121.293 235.517 117.855 250.421 119.916" stroke="#263238" stroke-width="3" stroke-linecap="round" stroke-linejoin="round"/>
<path d="M218.552 119.457C216.699 116.474 214.14 113.994 211.101 112.235C208.062 110.475 204.637 109.491 201.128 109.368" stroke="#263238" stroke-width="3" stroke-linecap="round" stroke-linejoin="round"/>
<path d="M266.486 83.7C262.364 75.141 247.784 61.83 232.88 61.2C220.136 60.651 215.78 65.448 214.745 66.843C214.187 66.438 205.637 60.543 191.156 67.743C191.068 67.7903 190.999 67.8653 190.958 67.9563C190.918 68.0474 190.909 68.1492 190.933 68.246C190.956 68.3427 191.011 68.4289 191.089 68.491C191.167 68.553 191.263 68.5875 191.363 68.589C191.432 68.5914 191.5 68.5759 191.561 68.544C202.226 63.207 209.66 65.331 212.693 66.744C210.749 66.411 207.239 66.285 202.136 67.851C193.892 70.389 185.036 78.948 182.804 93.843C180.572 108.738 187.556 121.419 190.094 123.957C192.632 126.495 192.947 131.886 192.947 131.886L192.308 115.398C192.308 115.398 191.993 114.129 195.8 111.6C198.932 109.503 212.639 95.553 217.337 90.729C218.183 95.229 220.487 104.049 226.22 110.007C226.306 110.093 226.422 110.142 226.544 110.142C226.602 110.144 226.66 110.134 226.715 110.112C226.769 110.09 226.818 110.058 226.859 110.016C226.901 109.975 226.934 109.926 226.957 109.872C226.98 109.818 226.991 109.76 226.991 109.701C226.991 109.642 226.98 109.584 226.957 109.53C226.934 109.476 226.901 109.427 226.859 109.386C221 103.284 218.822 94.086 218.102 89.937L218.93 89.091C218.93 89.091 222.728 99.549 229.073 104.94C235.418 110.331 243.653 114.768 256.649 110.646C269.645 106.524 274.397 100.503 274.397 100.503C274.397 100.503 270.608 92.277 266.486 83.7Z" fill="#263238"/>
<path d="M251.789 99.54C273.281 102.51 277.25 98.1 277.25 98.1" stroke="#7D7D7D" stroke-linecap="round" stroke-linejoin="round"/>
<path d="M220.1 76.05C220.1 76.05 226.904 91.35 243.158 97.425" stroke="#7D7D7D" stroke-linecap="round" stroke-linejoin="round"/>
<path d="M219.65 70.65C219.65 70.65 245.75 82.782 256.1 83.25C266.45 83.718 267.8 81.45 267.8 81.45" stroke="#7D7D7D" stroke-linecap="round" stroke-linejoin="round"/>
<path d="M214.7 76.95C214.7 76.95 195.35 87.3 189.95 99C184.55 110.7 186.8 118.8 186.8 118.8" stroke="#7D7D7D" stroke-linecap="round" stroke-linejoin="round"/>
<path d="M189.923 79.992C188.629 80.969 187.424 82.0593 186.323 83.25" stroke="#7D7D7D" stroke-linecap="round" stroke-linejoin="round"/>
<path d="M212.9 73.35C206.087 73.0374 199.315 74.5671 193.298 77.778" stroke="#7D7D7D" stroke-linecap="round" stroke-linejoin="round"/>
<path d="M221.126 126.297C216.762 124.341 212.035 123.329 207.253 123.329C202.47 123.329 197.743 124.341 193.379 126.297C193.379 126.297 190.742 126.558 190.742 128.673C190.742 130.788 192.587 130.518 192.587 130.518C192.587 130.518 192.947 140.517 197.087 143.469C200.786 146.115 208.985 146.907 213.206 145.323C217.427 143.739 220.082 140.823 220.874 138.186C221.666 135.549 221.126 126.297 221.126 126.297Z" stroke="#263238" stroke-width="3" stroke-linecap="round" stroke-linejoin="round"/>
<path d="M227.381 126.297C231.743 124.341 236.469 123.33 241.25 123.33C246.031 123.33 250.757 124.341 255.119 126.297C255.119 126.297 257.765 126.558 257.765 128.673C257.765 130.788 255.92 130.5 255.92 130.5C255.92 130.5 255.56 140.499 251.42 143.451C247.721 146.097 239.531 146.889 235.301 145.305C231.071 143.721 228.434 140.805 227.642 138.168C226.85 135.531 227.381 126.297 227.381 126.297Z" stroke="#263238" stroke-width="3" stroke-linecap="round" stroke-linejoin="round"/>
<path d="M221.126 126.297C223.147 125.484 225.405 125.484 227.426 126.297" stroke="#263238" stroke-width="3" stroke-linecap="round" stroke-linejoin="round"/>
<path d="M221.918 130.257H226.409" stroke="#263238" stroke-width="3" stroke-linecap="round" stroke-linejoin="round"/>
<path d="M254.3 130.5C254.3 130.5 255.632 124.254 259.988 124.254C264.344 124.254 265.487 129.069 262.733 134.568C259.979 140.067 252.185 143.514 251.735 140.301C251.285 137.088 254.3 130.5 254.3 130.5Z" stroke="#263238" stroke-linecap="round" stroke-linejoin="round"/>
<path d="M272.894 121.059C272.894 121.059 260.969 121.293 253.859 120.6C246.749 119.907 252.059 126 255.119 126.297C258.809 126.743 262.528 126.909 266.243 126.792C268.983 126.689 271.714 127.158 274.262 128.169C274.262 128.169 278.168 123.813 272.894 121.059Z" fill="white" stroke="#263238" stroke-linecap="round" stroke-linejoin="round"/>
<path d="M265.55 143.1C263.267 140.327 261.271 137.329 259.592 134.154C257.297 129.573 256.613 127.512 260.969 127.962C265.325 128.412 267.161 132.552 268.304 135.99C269.447 139.428 272.201 139.428 272.201 139.428L276.098 128.196L283.901 135.072L276.8 159.12C276.8 159.12 267.17 154.305 265.793 152.244C264.416 150.183 265.784 144.9 265.55 143.1Z" fill="white" stroke="#263238" stroke-linecap="round" stroke-linejoin="round"/>
<path d="M287.105 128.394C287.105 128.394 286.421 124.731 283.208 124.038C279.995 123.345 274.496 119.457 272.66 120.141C270.824 120.825 267.386 131.841 267.386 133.641C267.386 135.441 269.447 137.313 270.14 137.313C270.833 137.313 276.8 126.792 276.8 126.792L287.105 128.394Z" fill="white" stroke="#263238" stroke-linecap="round" stroke-linejoin="round"/>
<path d="M287.339 131.148C287.339 131.148 288.482 128.628 287.339 127.485C286.196 126.342 278.852 124.038 276.332 123.579C273.812 123.12 273.353 124.038 271.976 127.485C270.599 130.932 267.62 135.738 268.997 136.881C270.374 138.024 272.201 139.401 272.201 139.401L277.016 129.546L287.339 131.148Z" fill="white" stroke="#263238" stroke-linecap="round" stroke-linejoin="round"/>
<path d="M276.098 142.389C276.098 142.389 271.517 140.589 270.824 139.176C270.131 137.763 274.721 126.333 275.414 126.108C276.107 125.883 279.077 126.792 279.995 127.251C280.913 127.71 288.023 128.853 288.482 131.841C288.941 134.829 284.126 151.785 284.585 153.621C285.044 155.457 288.716 157.518 288.716 157.518L283.208 166.914C283.208 166.914 274.496 159.354 271.283 157.743C268.07 156.132 272.435 150.867 273.578 148.113C274.721 145.359 276.098 142.389 276.098 142.389Z" fill="white" stroke="#263238" stroke-linecap="round" stroke-linejoin="round"/>
<path d="M276.098 142.389L279.311 136.422" stroke="#263238" stroke-linecap="round" stroke-linejoin="round"/>
<path d="M277.016 136.197L281.372 136.656" stroke="#263238" stroke-linecap="round" stroke-linejoin="round"/>
<path d="M287.339 155.457L278.168 164.853L286.88 172.647L295.358 160.038L287.339 155.457Z" fill="#005FB8" stroke="#263238" stroke-linecap="round" stroke-linejoin="round"/>
<path d="M343.553 209.313C341.753 208.854 304.763 189.846 300.407 187.092C296.051 184.338 285.728 178.155 285.728 174.942C285.728 171.729 294.674 158.661 294.674 158.661C294.674 158.661 296.969 155.223 300.632 157.284C304.295 159.345 338.513 181.107 347.225 185.697C355.937 190.287 362.588 193.725 363.047 202.662C363.506 211.599 355.937 213.21 350.897 212.562" fill="#005FB8"/>
<path opacity="0.3" d="M335.921 195.822C323.6 193.428 302 186.543 296.888 184.878C298.229 185.778 299.462 186.498 300.407 187.092C304.763 189.846 341.717 208.854 343.553 209.313L350.897 212.526C355.937 213.21 363.497 211.626 363.047 202.626C362.597 193.626 355.937 190.242 347.225 185.661C342.059 182.961 327.911 174.177 316.499 167.067C330.053 176.715 349.457 190.917 349.961 193.446C350.744 197.379 349.961 198.549 335.921 195.822Z" fill="black"/>
<path d="M343.553 209.313C341.753 208.854 304.763 189.846 300.407 187.092C296.051 184.338 285.728 178.155 285.728 174.942C285.728 171.729 294.674 158.661 294.674 158.661C294.674 158.661 296.969 155.223 300.632 157.284C304.295 159.345 338.513 181.107 347.225 185.697C355.937 190.287 362.588 193.725 363.047 202.662C363.506 211.599 355.937 213.21 350.897 212.562" stroke="#263238" stroke-linecap="round" stroke-linejoin="round"/>
<path d="M273.578 202.689L249.278 207.504L250.196 213.921L263.723 216.441L272.66 208.422L273.578 202.689Z" stroke="#263238" stroke-linecap="round" stroke-linejoin="round"/>
<path d="M132.8 237.321C134.488 236.962 136.233 236.962 137.921 237.32C139.609 237.678 141.204 238.387 142.601 239.4C147.749 242.91 160.385 250.2 170.915 253.908C181.445 257.616 183.074 257.886 181.715 264.438C180.356 270.99 175.631 280.35 171.194 281.538C166.757 282.726 157.622 275.922 143.582 268.434C129.542 260.946 116.906 256.5 115.502 250.884C114.098 245.268 120.182 235.683 120.182 235.683" fill="#005FB8"/>
<path opacity="0.3" d="M170.915 253.935L169.691 253.485L177.602 258.264C177.602 258.264 168.674 258.264 167.405 265.068C166.136 271.872 170.375 275.688 167.828 276.534C165.281 277.38 131.279 261.234 131.279 261.234L132.386 262.818C135.86 264.519 139.64 266.355 143.537 268.434C157.577 275.922 166.703 282.708 171.149 281.538C175.595 280.368 180.266 271.008 181.67 264.438C183.074 257.868 181.4 257.679 170.915 253.935Z" fill="black"/>
<path d="M132.8 237.321C134.488 236.962 136.233 236.962 137.921 237.32C139.609 237.678 141.204 238.387 142.601 239.4C147.749 242.91 160.385 250.2 170.915 253.908C181.445 257.616 183.074 257.886 181.715 264.438C180.356 270.99 175.631 280.35 171.194 281.538C166.757 282.726 157.622 275.922 143.582 268.434C129.542 260.946 116.906 256.5 115.502 250.884C114.098 245.268 120.182 235.683 120.182 235.683" stroke="#263238" stroke-linecap="round" stroke-linejoin="round"/>
<path d="M233.15 260.487C233.15 260.487 238.055 261.387 241.565 260.487C245.075 259.587 245.309 261.387 243.671 264.465C242.033 267.543 238.055 268.911 235.49 268.677C232.925 268.443 228.938 263.061 233.15 260.487Z" fill="white" stroke="#263238" stroke-linecap="round" stroke-linejoin="round"/>
<path d="M189.626 269.145C189.626 269.145 195.71 267.741 198.05 266.103C200.39 264.465 218.876 252.063 221.216 252.063C223.556 252.063 239.216 264.231 239.459 265.167C239.702 266.103 235.022 271.953 233.618 273.123C232.214 274.293 226.598 281.313 225.194 282.717C223.79 284.121 218.408 286.695 216.77 287.163C215.132 287.631 212.792 286.263 213.26 284.589C213.728 282.915 214.16 281.547 214.16 281.547C214.16 281.547 205.268 285.993 200.588 284.823C195.908 283.653 184.91 278.037 184.91 278.037L189.626 269.145Z" fill="white" stroke="#263238" stroke-linecap="round" stroke-linejoin="round"/>
<path d="M214.196 270.081C214.196 270.081 225.428 279.909 225.194 282.681L214.196 270.081Z" fill="white"/>
<path d="M214.196 270.081C214.196 270.081 225.428 279.909 225.194 282.681" stroke="#263238" stroke-linecap="round" stroke-linejoin="round"/>
<path d="M217.238 262.359L230.342 276.165" stroke="#263238" stroke-linecap="round" stroke-linejoin="round"/>
<path d="M221.684 255.807L235.256 270.783" stroke="#263238" stroke-linecap="round" stroke-linejoin="round"/>
<path d="M214.196 281.547C214.196 281.547 218.174 280.143 217.706 282.447L214.196 281.547Z" fill="white"/>
<path d="M214.196 281.547C214.196 281.547 218.174 280.143 217.706 282.447" stroke="#263238" stroke-linecap="round" stroke-linejoin="round"/>
<path d="M178.628 262.593L191.228 267.741L184.676 282.483L172.076 276.399C172.076 276.399 171.617 267.507 178.628 262.593Z" fill="#005FB8" stroke="#263238" stroke-linecap="round" stroke-linejoin="round"/>
<path d="M299.861 352.535C299.688 352.419 276.046 349.305 269.473 348.383C269.007 348.331 268.577 348.107 268.268 347.755C267.958 347.403 267.792 346.948 267.8 346.48V346.249L299.861 349.997V352.535Z" fill="#5B9BD7"/>
<path d="M267.8 345.763L308.568 340.977L307.876 348.358L299.861 349.511L299.054 351.011L267.8 345.763Z" fill="#97ADB7"/>
<path d="M299.485 351.752L310.096 309.715C310.272 309.002 310.657 308.358 311.202 307.865C311.746 307.372 312.425 307.052 313.152 306.947L367.644 298.816C367.914 298.778 368.19 298.808 368.445 298.904C368.701 299 368.928 299.158 369.106 299.365C369.284 299.572 369.407 299.82 369.464 300.087C369.521 300.354 369.51 300.631 369.432 300.892L358.303 338.547C358.107 339.183 357.749 339.757 357.264 340.212C356.778 340.668 356.182 340.988 355.535 341.142L301.388 353.77C301.116 353.824 300.835 353.808 300.571 353.723C300.307 353.639 300.069 353.489 299.879 353.287C299.689 353.085 299.553 352.839 299.484 352.57C299.415 352.302 299.416 352.02 299.485 351.752Z" fill="#5B9BD7"/>
<path d="M337.971 326.53C337.395 328.605 335.492 330.624 333.589 331.027C331.686 331.431 330.648 330.047 331.225 327.971C331.801 325.895 333.704 323.877 335.607 323.473C337.51 323.07 338.548 324.454 337.971 326.53Z" fill="#97ADB7"/>
<defs>
<clipPath id="clip0_12_15">
<rect width="62.9515" height="49.2029" fill="white" transform="translate(341.6 123.3)"/>
</clipPath>
</defs>
</svg>
