<svg width="57" height="56" viewBox="0 0 57 56" fill="none" xmlns="http://www.w3.org/2000/svg">
<g clip-path="url(#clip0_105_5)">
<path fill-rule="evenodd" clip-rule="evenodd" d="M43.4184 51.6096C38.5324 51.6096 35.374 49.28 33.834 46.2336L38.118 43.7528C39.2464 45.5952 40.7108 46.9476 43.3064 46.9476C45.4848 46.9476 46.8764 45.8584 46.8764 44.3548C46.8764 42.0924 43.858 41.2076 41.7272 40.2948C37.9304 38.6792 35.4104 36.6492 35.4104 32.3624C35.4104 28.4172 38.4176 25.41 43.1188 25.41C46.462 25.41 48.87 26.5748 50.5976 29.6184L46.5012 32.2504C45.5996 30.6348 44.6224 29.9964 43.1188 29.9964C41.576 29.9964 40.5988 30.9736 40.5988 32.2504C40.5988 33.8296 41.576 34.468 43.8328 35.4452C48.562 37.4724 52.1404 39.0656 52.1404 44.2792C52.1404 49.0168 48.4192 51.6096 43.4184 51.6096V51.6096ZM31.3 43.6772C31.3 49.1288 27.9428 52.01 23.2808 52.01C19.0696 52.01 16.5468 50.4 15.3064 47.6H15.2336L19.5148 44.6068C20.3408 46.0712 21.0856 47.11 22.8888 47.11C24.6192 47.11 25.7 46.2336 25.7 43.6044V25.2H31.3V43.6772ZM0.5 56H56.5V0H0.5V56Z" fill="#868E96"/>
</g>
<defs>
<clipPath id="clip0_105_5">
<rect width="56" height="56" fill="white" transform="translate(0.5)"/>
</clipPath>
</defs>
</svg>
