<svg width="57" height="56" viewBox="0 0 57 56" fill="none" xmlns="http://www.w3.org/2000/svg">
<path d="M49.8373 13.2711L30.5449 2.06894C29.3282 1.37594 27.744 1.37594 26.5177 2.06894L7.01919 13.2711C5.76356 13.9934 4.875 15.351 4.875 16.8031V39.1777C4.875 40.6298 5.78675 41.9878 7.04238 42.714L12.1939 45.64C14.6562 46.8528 15.5264 46.8528 16.6468 46.8528C20.2925 46.8528 22.375 44.6482 22.375 40.803V18.7136C22.375 18.4017 22.2127 17.9375 21.9064 17.9375H19.4464C19.1349 17.9375 18.4375 18.4017 18.4375 18.7132V40.8026C18.4375 42.5071 16.8958 44.2033 14.0144 42.7626L8.69131 39.6944C8.50581 39.5938 8.375 39.3912 8.375 39.1777V16.8031C8.375 16.5922 8.61781 16.3804 8.80463 16.2724L28.2401 5.08944C28.4217 4.98663 28.6886 4.98663 28.8697 5.08944L48.0681 16.2698C48.2518 16.3804 48.1871 16.5856 48.1871 16.8031V39.1777C48.1871 39.3912 48.2671 39.599 48.0856 39.7018L28.7979 50.8913C28.6326 50.9906 28.4274 50.9906 28.2463 50.8913L23.2994 47.9386C23.1502 47.852 22.9731 47.8209 22.83 47.901C21.4536 48.6811 21.1999 48.7848 19.9088 49.2323C19.5912 49.343 19.1226 49.5351 20.0882 50.0763L26.5623 53.9061C27.1822 54.2649 27.8866 54.4513 28.5954 54.4513C29.3138 54.4513 30.0173 54.2649 30.6372 53.9061L49.8369 42.714C51.0925 41.9825 51.6875 40.6298 51.6875 39.1777V16.8031C51.6875 15.351 51.0925 13.9969 49.8373 13.2711ZM34.5856 35.6322C29.4555 35.6322 28.3254 34.2169 27.9488 31.6658C27.905 31.3911 27.6718 31.0625 27.3923 31.0625H24.8849C24.5747 31.0625 24.3254 31.4388 24.3254 31.7476C24.3254 35.014 26.1012 38.9716 34.5861 38.9716C40.7281 38.9716 44.2496 36.5851 44.2496 32.3614C44.2496 28.1737 41.4202 27.0747 35.4637 26.2863C29.4428 25.4905 28.8312 25.0884 28.8312 23.6779C28.8312 22.5151 29.3492 20.9641 33.8073 20.9641C37.7907 20.9641 39.259 21.819 39.8632 24.5039C39.9148 24.7564 40.1454 24.9375 40.4057 24.9375H42.9231C43.0779 24.9375 43.2258 24.8749 43.3343 24.7643C43.4393 24.6453 43.4949 24.4961 43.4809 24.3359C43.0911 19.7124 40.0194 17.5578 33.8069 17.5578C28.2808 17.5578 24.9843 19.8914 24.9843 23.8031C24.9843 28.0459 28.2642 29.2184 33.5689 29.743C39.9148 30.3651 40.4083 31.2926 40.4083 32.5408C40.4083 34.7086 38.6679 35.6322 34.5856 35.6322Z" fill="#868E96"/>
</svg>
