<svg width="57" height="56" viewBox="0 0 57 56" fill="none" xmlns="http://www.w3.org/2000/svg">
<path fill-rule="evenodd" clip-rule="evenodd" d="M54.4254 33.593C54.2285 32.3164 53.1562 31.4803 51.9089 31.4239C51.4574 31.4033 50.9989 31.4506 50.5487 31.5079C50.0049 31.577 49.4676 31.6995 48.9251 31.7804C48.5502 31.8364 48.17 31.8622 47.7955 31.9007L47.7863 31.8522C48.4854 30.5318 49.2139 29.2259 49.8754 27.8867C50.3824 26.8594 50.8164 25.795 51.2649 24.7393C52.0069 22.9902 52.5997 21.1868 53.0906 19.3541C53.5609 17.5993 53.9634 15.8253 54.0898 14.0048C54.1406 13.2777 54.1756 12.5475 54.1716 11.8195C54.1681 11.2389 54.1056 10.6575 54.0474 10.0787C53.9818 9.41544 53.7814 8.78675 53.504 8.18169C53.1382 7.38456 52.5713 6.7305 51.9745 6.10925C51.4967 5.61181 50.9713 5.15856 50.4502 4.70575C49.7074 4.05956 48.8722 3.54375 48.0046 3.08569C47.0189 2.56506 45.9829 2.15775 44.9027 1.88256C44.2496 1.71587 43.5815 1.59206 42.92 1.45994C42.682 1.41181 42.4436 1.3125 42.2056 1.3125H37.7251C37.5632 1.3125 37.4027 1.39606 37.2395 1.41444C36.1667 1.53388 35.1067 1.736 34.0773 2.05494C33.6923 2.17437 33.3405 2.09913 32.9747 2.06544C32.6943 2.03963 32.4187 1.96438 32.1383 1.95038C31.0699 1.897 30.0002 1.81869 28.9322 1.83006C27.9089 1.84056 26.8961 2.009 25.9056 2.29031C25.0766 2.52569 24.2654 2.81313 23.5226 3.24888C23.2045 3.43525 22.9525 3.40025 22.6235 3.30531C21.5179 2.98637 20.4045 2.68669 19.2814 2.43512C18.5814 2.2785 17.8617 2.20063 17.1469 2.12581C16.4618 2.0545 15.7714 2.01163 15.0828 1.99719C14.4099 1.98275 13.7322 1.98319 13.0624 2.04269C11.9953 2.13763 10.9484 2.35463 9.93075 2.70463C8.80069 3.09313 7.76469 3.65619 6.83063 4.39556C5.88256 5.14587 5.12219 6.062 4.51056 7.10806C3.86612 8.21187 3.42425 9.39356 3.1495 10.6348C3.00075 11.3072 2.90669 11.9984 2.80475 12.6814C2.77281 12.894 3.125 13.1066 2.6875 13.3184V16.2908C3.125 16.4885 2.7785 16.6858 2.80387 16.884C2.86469 17.3604 2.9185 17.8408 2.999 18.3138C3.12631 19.0623 3.27725 19.8087 3.43125 20.5524C3.64606 21.5915 3.86963 22.6297 4.10763 23.6635C4.28088 24.416 4.47819 25.1641 4.68469 25.9083C5.00012 27.0449 5.31075 28.1838 5.66731 29.3077C5.9985 30.352 6.37781 31.3814 6.75406 32.4109C7.27513 33.8349 7.899 35.2131 8.64712 36.5339C9.29419 37.6775 10.0336 38.7485 11.0254 39.6296C11.679 40.2102 12.4066 40.6564 13.2536 40.8796C13.919 41.0546 14.5954 41.0756 15.2766 40.936C16.0663 40.7741 16.7654 40.4342 17.3871 39.9249C17.4584 39.8663 17.5367 39.8217 17.6211 39.9293C17.9427 40.3366 18.3732 40.6083 18.8234 40.8433C20.0383 41.4767 21.3622 41.6666 22.7071 41.7441C23.0326 41.7629 23.3616 41.7161 23.6897 41.7069C24.3289 41.6894 24.9501 41.5647 25.5613 41.3879C25.8816 41.2952 26.1944 41.1775 26.5203 41.0677C26.5374 41.4146 26.5592 41.7489 26.5693 42.0831L26.6148 43.9058C26.6231 44.1831 26.6341 44.4614 26.6599 44.7374C26.7259 45.4493 26.7907 46.1615 26.8756 46.8711C26.9346 47.3603 26.9959 47.8533 27.1109 48.3306C27.3424 49.2944 27.6561 50.2329 28.0551 51.1429C28.4466 52.0358 29.0097 52.7896 29.7613 53.4113C30.7326 54.2146 31.8709 54.5571 33.1003 54.6206C33.6087 54.6473 34.1315 54.6223 34.632 54.5313C35.4252 54.3874 36.2166 54.2062 36.9888 53.9735C38.5599 53.4992 39.9179 52.6803 40.9324 51.3568C41.5099 50.6026 41.9842 49.7866 42.2887 48.8858C42.5398 48.1416 42.7765 47.39 42.9646 46.6283C43.1134 46.0281 43.1869 45.409 43.2774 44.7961C43.3374 44.3905 43.3732 43.981 43.4109 43.5724C43.4721 42.9087 43.5347 42.2454 43.5789 41.5804C43.6095 41.1176 43.6082 40.6525 43.6266 40.1888C43.6322 40.0474 43.655 39.907 43.6681 39.7661C43.6804 39.6357 43.746 39.5907 43.879 39.5929C44.3476 39.5999 44.817 39.6121 45.2842 39.5911C45.8079 39.5675 46.3364 39.5452 46.8518 39.4586C47.5855 39.3356 48.3157 39.1803 49.0349 38.9917C49.885 38.7695 50.6646 38.3714 51.4149 37.9177C52.2891 37.3896 53.0858 36.7701 53.7324 35.9721C54.2946 35.2761 54.561 34.4715 54.4254 33.593ZM52.9326 34.0226C52.9038 34.4229 52.7204 34.7659 52.4544 35.0591C51.1992 36.4429 49.6247 37.2824 47.8235 37.6959C47.1392 37.8525 46.4331 37.9339 45.7327 37.9986C45.1364 38.0537 44.5313 38.0629 43.9328 38.0411C43.4927 38.0244 43.0561 37.9238 42.6063 37.8591C42.5612 38.2703 42.5184 38.6986 42.4663 39.1261L42.2568 40.7645C42.1933 41.2838 42.1439 41.8049 42.0787 42.3237C42.0148 42.8273 41.9352 43.3291 41.8682 43.8327C41.8057 44.3017 41.7598 44.7729 41.6902 45.241C41.583 45.9585 41.4806 46.6777 41.3406 47.3896C41.1726 48.2405 40.9149 49.0648 40.4945 49.8321C39.9818 50.7688 39.2546 51.4824 38.3293 52.0109C37.3756 52.556 36.333 52.8395 35.276 53.0766C34.5279 53.2446 33.757 53.2722 32.9992 53.2039C31.685 53.0849 30.5632 52.5228 29.7154 51.5038C28.906 50.5312 28.3582 49.4165 28.1623 48.1548C28.0686 47.5549 28.0012 46.9499 27.9474 46.3452C27.8879 45.6728 27.8472 44.9982 27.8166 44.324C27.7777 43.4678 27.7493 42.6116 27.7304 41.7554C27.7073 40.7028 27.6998 39.6502 27.6849 38.5976L27.6823 38.5573C27.1468 38.8784 26.6205 39.2302 26.0623 39.5198C25.4086 39.8593 24.6986 40.0562 23.9631 40.1117C23.3865 40.1555 22.8024 40.1953 22.2284 40.1494C21.2874 40.0737 20.3472 39.9262 19.5046 39.4629C19.1629 39.2748 18.8063 39.046 18.5709 38.7454C18.0066 38.0253 18.2769 37.1153 19.1279 36.6774C19.7159 36.3742 20.3577 36.2477 20.9951 36.1003C21.549 35.9721 22.1003 35.8264 22.6406 35.6501C23.1752 35.4751 23.5125 35.0416 23.8454 34.6163L24.3731 33.9377C24.153 33.9146 23.9456 33.8909 23.7383 33.8717C23.1087 33.8122 22.508 33.6389 21.9336 33.3843C21.4418 33.1669 21.4344 33.1433 21.0739 33.5344C20.4719 34.188 19.8865 34.8569 19.2968 35.5215C18.8628 36.0102 18.4314 36.5019 17.9996 36.9919C17.5717 37.4767 17.1709 37.989 16.7102 38.4401C16.026 39.1099 15.2013 39.5128 14.2174 39.4673C13.5861 39.4384 13.0081 39.2171 12.4884 38.8552C11.4156 38.108 10.6929 37.0628 10.0349 35.9651C9.19181 34.5586 8.54475 33.0601 7.99087 31.5206C7.60763 30.4566 7.22262 29.3917 6.88794 28.3124C6.52437 27.1394 6.20544 25.9516 5.89175 24.7642C5.65463 23.8682 5.44419 22.9648 5.24338 22.0596C5.01544 21.0302 4.79625 19.999 4.60288 18.9626C4.4725 18.263 4.39681 17.5534 4.29138 16.849C4.14919 15.8996 4.12294 14.9415 4.17456 13.9882C4.2205 13.1294 4.34388 12.2727 4.46637 11.4196C4.63612 10.2393 5.02506 9.12538 5.58462 8.07363C5.92719 7.42919 6.35244 6.84337 6.84419 6.29912C7.65138 5.40575 8.62831 4.76 9.71506 4.27525C10.4746 3.93663 11.2769 3.73275 12.0946 3.5735C13.3083 3.33725 14.5328 3.34644 15.7578 3.37181C16.2933 3.38275 16.8266 3.48031 17.3617 3.53325C18.5136 3.64788 19.6428 3.89025 20.7576 4.1895C21.57 4.40738 22.3658 4.68956 23.1717 4.93456C23.2526 4.95906 23.3712 4.95688 23.4373 4.91356C24.5293 4.20088 25.7227 3.73056 26.9919 3.4615C27.4736 3.35956 27.9706 3.31494 28.4632 3.28344C29.0622 3.24538 29.6659 3.21037 30.2636 3.24494C30.9819 3.28606 31.6968 3.39194 32.4108 3.48994C32.7573 3.53719 33.0955 3.6575 33.4429 3.69031C33.6091 3.70606 33.7854 3.58444 33.9613 3.54375C34.8577 3.33681 35.7503 3.10625 36.6546 2.94262C37.3279 2.821 38.0156 2.76369 38.7003 2.72431C39.4638 2.68056 40.2329 2.64863 40.9959 2.68537C41.9606 2.73175 42.9182 2.86912 43.8637 3.08919C45.0349 3.36175 46.1584 3.75769 47.2263 4.30719C48.0243 4.71756 48.7829 5.19356 49.4659 5.77894C49.9134 6.16306 50.3715 6.54238 50.7757 6.97025C51.2745 7.49788 51.7833 8.02594 52.0961 8.70187C52.3315 9.21156 52.4995 9.73919 52.5459 10.2974C52.6036 10.9913 52.6736 11.6878 52.6671 12.3826C52.6609 13.0471 52.5704 13.7112 52.5061 14.3741C52.3599 15.8852 52.0314 17.3635 51.6324 18.8221C51.3025 20.027 50.9171 21.2188 50.4997 22.3965C50.1151 23.4819 49.6715 24.5477 49.2231 25.6091C48.8919 26.3939 48.5353 27.1705 48.1477 27.9291C47.414 29.3668 46.651 30.7895 45.7686 32.1436C45.6163 32.3776 45.4719 32.6174 45.3232 32.8562C45.7082 33.1161 46.1444 33.2076 46.5836 33.2548C47.0014 33.3003 47.4276 33.3274 47.8449 33.2964C48.513 33.2469 49.1789 33.1516 49.843 33.0584C50.501 32.9665 51.1459 32.7793 51.8214 32.8287C52.496 32.8777 52.9786 33.3904 52.9326 34.0226ZM43.3019 32.5557C43.0154 32.1856 42.7231 31.8198 42.4427 31.4453C42.0026 30.8573 41.6862 30.2006 41.3686 29.5409C41.0676 28.9157 40.6984 28.3237 40.3812 27.7056C39.8277 26.6271 39.2643 25.5522 38.7546 24.4527C38.1136 23.0716 37.6083 21.6414 37.4491 20.1114C37.3817 19.4639 37.3646 18.8173 37.4954 18.1759C37.705 17.1517 38.2401 16.3507 39.1396 15.8012C39.9739 15.2915 40.9036 15.127 41.856 15.0754C42.4471 15.0434 43.0407 15.0697 43.6541 15.0697L43.6336 14.966C43.2521 14.1684 42.8955 13.3573 42.4781 12.5786C41.8892 11.4796 41.1359 10.4886 40.2967 9.56988C39.6751 8.88956 39.0018 8.25825 38.2641 7.70044C37.5387 7.15137 36.7744 6.66094 35.9589 6.25975C34.9864 5.78156 33.9736 5.41188 32.9109 5.17606C31.8897 4.94944 30.8621 4.81075 29.8147 4.79938C28.9213 4.78975 28.0336 4.83 27.1634 5.03169C25.8501 5.33575 24.6487 5.8765 23.6035 6.75238C23.0199 7.2415 22.5106 7.79056 22.0648 8.40175C21.5416 9.12056 21.1194 9.89669 20.7584 10.7104C20.2632 11.8269 19.9233 12.9889 19.6909 14.1833C19.5746 14.7787 19.4836 15.3794 19.3908 15.9797C19.3584 16.1897 19.3558 16.4045 19.337 16.6451C19.4984 16.5611 19.6148 16.4964 19.7338 16.4386L20.121 16.2649C21.4304 15.666 22.7871 15.2806 24.2453 15.3247C24.8648 15.3436 25.4576 15.4661 26.0084 15.7373C27.065 16.2584 27.6832 17.1443 27.9518 18.2656C28.1373 19.0396 28.2642 19.8288 28.3876 20.6159C28.4842 21.2306 28.5831 21.8518 28.5945 22.4717C28.6107 23.3778 28.5648 24.2856 28.5153 25.1912C28.4733 25.963 28.3123 26.7225 28.0428 27.4426C27.5528 28.7521 27.0068 30.0401 26.4967 31.3421C26.3283 31.7721 26.1987 32.2175 26.0395 32.6904C26.2854 32.6904 26.4849 32.6887 26.6844 32.6913C26.7622 32.6926 26.8419 32.6948 26.9171 32.7128C27.5034 32.851 28.0118 33.1166 28.4287 33.5676C28.9848 34.1679 29.2766 34.8683 29.2914 35.679C29.2997 36.1283 29.2525 36.5789 29.2547 37.0283C29.2639 39.1221 29.2796 41.216 29.2971 43.3094C29.3002 43.6516 29.3173 43.9941 29.3418 44.3358C29.3929 45.0511 29.4446 45.7669 29.5146 46.4804C29.5636 46.9866 29.6318 47.4919 29.7119 47.9946C29.8252 48.7069 30.1494 49.3408 30.5173 49.9468C30.8341 50.4678 31.2458 50.9106 31.7882 51.2159C32.7101 51.7348 33.7028 51.7781 34.7033 51.5869C35.3792 51.4579 36.0429 51.2505 36.6992 51.0366C37.3462 50.8261 37.9308 50.4814 38.4216 50.0067C38.8814 49.5609 39.2078 49.0175 39.4279 48.4177C39.8549 47.2544 39.9879 46.0294 40.1646 44.814C40.2307 44.359 40.288 43.9027 40.3484 43.4468C40.4171 42.9279 40.4866 42.4095 40.5531 41.8911C40.6021 41.5047 40.6468 41.1176 40.694 40.7313C40.7614 40.1765 40.8327 39.6222 40.897 39.067C40.9464 38.6378 40.9884 38.2069 41.0322 37.7768C41.0886 37.2273 41.1494 36.6778 41.198 36.1274C41.2356 35.7096 41.2203 35.2844 41.2943 34.8744C41.4303 34.1228 41.7856 33.4832 42.4519 33.0697C42.7306 32.8969 43.0451 32.7832 43.3544 32.6371L43.3019 32.5557ZM18.1033 29.4704C17.7703 28.6821 17.5704 27.8604 17.5109 27.0108C17.4549 26.2124 17.5498 25.417 17.6316 24.6221C17.7113 23.8521 17.7773 23.0786 17.8005 22.3051C17.839 21.0337 17.7533 19.7641 17.6924 18.4936C17.6557 17.7371 17.7436 16.9715 17.811 16.2133C17.8718 15.5304 17.9475 14.8457 18.0766 14.1728C18.2931 13.0436 18.5806 11.9306 18.9892 10.8518C19.3773 9.82888 19.8231 8.83269 20.4526 7.93581C20.884 7.32069 21.3736 6.74581 21.8439 6.14469L21.7043 6.09525C20.1739 5.60919 18.6186 5.22944 17.0191 5.06363C16.2627 4.98531 15.5036 4.93938 14.745 4.89431C14.5123 4.88031 14.276 4.91181 14.0424 4.93412C13.464 4.98925 12.8786 5.01112 12.3094 5.11962C11.3408 5.30381 10.4116 5.61356 9.551 6.118C8.77837 6.57081 8.12956 7.15619 7.58619 7.85838C6.98594 8.63363 6.58213 9.51038 6.29206 10.4453C5.9495 11.5483 5.78631 12.6831 5.74213 13.8285C5.70363 14.8326 5.68438 15.8423 5.85763 16.8424C5.98669 17.5871 6.07287 18.3396 6.21506 19.0811C6.40887 20.0922 6.61669 21.1011 6.85687 22.1016C7.20031 23.534 7.54331 24.9686 7.95019 26.3834C8.33956 27.7393 8.77881 29.0828 9.25481 30.4102C9.64419 31.4934 10.0944 32.5566 10.5686 33.6057C10.8775 34.2891 11.2516 34.9466 11.6436 35.5867C12.0605 36.2661 12.5347 36.911 13.1783 37.4041C13.9903 38.0266 14.619 38.1233 15.4441 37.4404C15.7976 37.1477 16.0964 36.7863 16.404 36.442C16.8927 35.8951 17.3643 35.3334 17.8508 34.7848C18.4703 34.0856 19.0977 33.3939 19.7202 32.6983C19.8519 32.5513 19.9784 32.3999 20.1066 32.2512L19.8948 32.0653C19.1209 31.3219 18.5215 30.4601 18.1033 29.4704ZM41.5918 8.659C42.0975 9.25225 42.5871 9.863 43.0394 10.4983C43.9144 11.7272 44.6136 13.0541 45.1285 14.4738C45.3564 15.0994 45.5384 15.7312 45.4571 16.4159C45.4006 16.8954 45.4054 17.3819 45.363 17.864C45.3276 18.2652 45.2641 18.6642 45.2121 19.0641C45.1342 19.6669 45.0213 20.2681 44.9876 20.8736C44.9557 21.4497 44.9889 22.0321 45.0253 22.6096C45.062 23.1963 45.1412 23.7803 45.195 24.3661C45.2558 25.0303 45.3376 25.6944 45.3564 26.3598C45.3717 26.9062 45.3232 27.4562 45.2755 28.0017C45.2186 28.6589 45.0519 29.295 44.8034 29.9053C44.6289 30.3349 44.4202 30.7514 44.2229 31.1815L44.3021 31.2655L44.4224 31.3587L44.5436 31.1417C45.5669 29.5282 46.4773 27.8526 47.2657 26.1135C47.7728 24.9935 48.2479 23.8577 48.7038 22.7159C49.4142 20.9379 49.9764 19.11 50.4113 17.2458C50.6064 16.4089 50.7556 15.5593 50.8882 14.7096C50.9914 14.0455 51.0776 13.3735 51.0969 12.7032C51.1174 11.9923 51.0781 11.2757 51.0124 10.5665C50.9634 10.031 50.8313 9.492 50.4958 9.05669C49.9563 8.35581 49.374 7.68556 48.6578 7.15531C48.0549 6.70862 47.4543 6.25056 46.8072 5.87475C45.7812 5.27975 44.6709 4.88337 43.5106 4.61344C42.3784 4.34963 41.2313 4.23587 40.0767 4.21181C39.3959 4.19737 38.7121 4.27044 38.0327 4.33431C37.4171 4.39206 36.8055 4.4905 36.1856 4.57187C36.8506 4.94594 37.5064 5.27844 38.125 5.67044C39.4257 6.49425 40.5912 7.48562 41.5918 8.659ZM24.6933 31.7249C25.1138 30.3804 25.6864 29.0968 26.2412 27.8053C26.6909 26.7579 26.9368 25.6546 27.0186 24.5214C27.0593 23.9627 27.0479 23.3971 27.0204 22.8366C26.9893 22.2141 26.9394 21.5898 26.8489 20.9733C26.7325 20.1854 26.5999 19.397 26.4136 18.6235C26.2114 17.7866 25.7018 17.2038 24.8285 16.989C24.2965 16.8582 23.768 16.8634 23.2303 16.9483C21.9169 17.1552 20.7147 17.6391 19.5947 18.3479C19.3694 18.4905 19.2456 18.6056 19.2845 18.9289C19.3668 19.6136 19.3847 20.3092 19.3816 21.0004C19.3773 21.9787 19.3357 22.9569 19.2985 23.9347C19.2862 24.2533 19.2403 24.57 19.2062 24.8872C19.1537 25.3728 19.0526 25.858 19.0557 26.3428C19.0588 26.8424 19.1099 27.3538 19.2311 27.8377C19.6161 29.372 20.4316 30.6276 21.7682 31.5136C22.5903 32.0582 23.4998 32.333 24.4982 32.3851C24.566 32.1558 24.6264 31.9392 24.6933 31.7249ZM23.1244 18.5618C22.9486 18.1926 23.0492 17.8868 23.4569 17.745C23.5562 17.71 23.6586 17.6728 23.7619 17.6628C23.9036 17.6488 24.048 17.6592 24.1915 17.6592C24.7086 17.6619 25.2061 17.7341 25.6331 18.0631C25.9069 18.2739 25.9804 18.5539 25.8032 18.8414C25.5517 19.2491 25.168 19.4539 24.6968 19.4932C23.9544 19.5549 23.4333 19.2089 23.1244 18.5618ZM43.7044 18.4271C43.7639 17.9353 43.8116 17.4422 43.8724 16.9505C43.8969 16.7527 43.7928 16.6994 43.627 16.6946C43.1055 16.6801 42.584 16.6617 42.0625 16.6521C41.4745 16.6416 40.9022 16.7361 40.358 16.9597C39.7542 17.2082 39.2944 17.6063 39.1068 18.2634C38.9668 18.7534 38.9291 19.243 38.9786 19.7553C39.0538 20.5362 39.2271 21.294 39.5005 22.0198C39.8654 22.9915 40.2473 23.9628 40.7036 24.8938C41.3218 26.1542 42.0214 27.3744 42.6781 28.6156C42.8535 28.9467 43.0009 29.2924 43.1838 29.6791C43.5666 28.8684 43.7534 28.0569 43.7749 27.2195C43.7928 26.5151 43.7364 25.8077 43.6953 25.1029C43.6694 24.6715 43.6086 24.2428 43.5666 23.8123C43.508 23.2124 43.4192 22.6131 43.4056 22.0119C43.3921 21.4007 43.4354 20.7861 43.4879 20.1758C43.5373 19.5904 43.634 19.0098 43.7044 18.4271ZM42.528 17.9537C42.3342 18.4887 41.9199 18.7906 41.3826 18.8794C40.8817 18.9617 40.4429 18.7766 40.1165 18.3772C39.8842 18.0928 39.973 17.7559 40.3212 17.5639C40.7211 17.3425 41.1608 17.2865 41.6792 17.2528C41.8201 17.2786 42.0323 17.3001 42.234 17.3578C42.5267 17.4405 42.6348 17.6606 42.528 17.9537ZM27.0309 34.4299C26.7443 34.1959 26.3654 34.1823 26.0929 34.4391C25.7547 34.7585 25.4572 35.1238 25.1597 35.4839C24.8162 35.8999 24.4943 36.3326 24.0511 36.6551C23.4062 37.1236 22.6546 37.3179 21.899 37.5016C21.2983 37.6478 20.695 37.7834 20.0926 37.9238L20.0851 38.0017C20.2641 38.0844 20.4373 38.1876 20.6237 38.2467C21.5424 38.5376 22.4769 38.6824 23.4478 38.6002C24.1486 38.5407 24.8162 38.388 25.4489 38.0879C26.3195 37.6753 26.9893 37.0217 27.5589 36.2613C27.6543 36.1344 27.6976 35.9468 27.709 35.7831C27.7479 35.2052 27.4544 34.7756 27.0309 34.4299ZM49.6719 34.6601C48.9326 34.7393 48.1923 34.8232 47.4508 34.8657C47.0929 34.8862 46.7298 34.818 46.3684 34.7887C45.7624 34.7397 45.1709 34.6049 44.6586 34.2812C44.362 34.0944 44.1157 34.0734 43.8007 34.1792C43.3509 34.3306 42.9839 34.5607 42.8754 35.0481C42.8014 35.3776 42.7747 35.7188 42.745 36.0561C42.7393 36.1156 42.8137 36.225 42.8706 36.2399C43.2175 36.3313 43.5662 36.4394 43.921 36.4713C44.3568 36.5107 44.8004 36.498 45.2392 36.4761C45.713 36.4525 46.1899 36.4219 46.6567 36.3431C47.757 36.1585 48.8214 35.8575 49.7669 35.2336C50.1077 35.0083 50.4454 34.7782 50.7841 34.5503L50.7561 34.5021C50.3947 34.5559 50.0351 34.6216 49.6719 34.6601Z" fill="#868E96"/>
</svg>
