<svg width="56" height="56" viewBox="0 0 56 56" fill="none" xmlns="http://www.w3.org/2000/svg">
<path d="M28 32.9875C30.7545 32.9875 32.9875 30.7545 32.9875 28C32.9875 25.2454 30.7545 23.0125 28 23.0125C25.2455 23.0125 23.0125 25.2454 23.0125 28C23.0125 30.7545 25.2455 32.9875 28 32.9875Z" fill="#868E96"/>
<path d="M46.9438 19.775C45.9813 19.425 44.975 19.075 43.925 18.7687C44.1875 17.7187 44.4063 16.6687 44.5813 15.6625C45.5 9.88745 44.4938 5.8187 41.6938 4.2437C40.8625 3.76245 39.9438 3.5437 38.8938 3.5437C35.8313 3.5437 31.9375 5.8187 28 9.62495C24.0625 5.8187 20.1688 3.5437 17.1063 3.5437C16.0563 3.5437 15.1375 3.76245 14.3063 4.2437C11.5063 5.86245 10.5 9.9312 11.4188 15.6625C11.5938 16.6687 11.8125 17.7187 12.075 18.7687C11.025 19.075 10.0188 19.3812 9.05625 19.775C3.5875 21.875 0.612503 24.7625 0.612503 28C0.612503 31.2375 3.63125 34.125 9.05625 36.225C10.0188 36.575 11.025 36.9249 12.075 37.2312C11.8125 38.2812 11.5938 39.3312 11.4188 40.3375C10.5 46.1124 11.5063 50.1812 14.3063 51.7562C15.1375 52.2375 16.0563 52.4562 17.1063 52.4562C20.2125 52.4562 24.1063 50.1812 28 46.375C31.9375 50.1812 35.8313 52.4562 38.8938 52.4562C39.9438 52.4562 40.8625 52.2375 41.6938 51.7562C44.4938 50.1375 45.5 46.0687 44.5813 40.3375C44.4063 39.3312 44.1875 38.2812 43.925 37.2312C44.975 36.9249 45.9813 36.6187 46.9438 36.225C52.4125 34.125 55.3875 31.2375 55.3875 28C55.3875 24.7625 52.4125 21.875 46.9438 19.775ZM40.4688 6.4312C42.2625 7.4812 42.875 10.7187 42.1313 15.3125C42 16.2312 41.7813 17.1937 41.5188 18.2C39.2438 17.675 36.8375 17.325 34.3 17.1062C32.8125 15.0062 31.2813 13.125 29.75 11.4187C32.9875 8.22495 36.2688 6.03745 38.9375 6.03745C39.5063 6.03745 40.0313 6.1687 40.4688 6.4312ZM35.5688 32.375C34.7813 33.775 33.8625 35.175 32.9 36.575C31.2813 36.7062 29.6625 36.75 28 36.75C26.2938 36.75 24.675 36.7062 23.1 36.575C22.1375 35.175 21.2625 33.775 20.475 32.375C19.6438 30.9312 18.8563 29.4437 18.1563 28C18.8563 26.5562 19.6438 25.0687 20.475 23.625C21.2625 22.225 22.1813 20.825 23.1438 19.425C24.7625 19.2937 26.3813 19.25 28.0438 19.25C29.75 19.25 31.3688 19.2937 32.9438 19.425C33.9063 20.825 34.7813 22.225 35.5688 23.625C36.4 25.0687 37.1875 26.5562 37.8875 28C37.1438 29.4437 36.4 30.8875 35.5688 32.375ZM39.2 30.9312C39.8563 32.4625 40.3813 33.95 40.8625 35.4375C39.375 35.7875 37.8 36.05 36.1375 36.2687C36.6625 35.4375 37.2313 34.5625 37.7125 33.6437C38.2375 32.725 38.7188 31.8062 39.2 30.9312ZM28 42.7875C26.95 41.65 25.9438 40.425 24.9813 39.1562C25.9875 39.2 26.9938 39.2437 28 39.2437C29.0063 39.2437 30.0125 39.2 31.0188 39.1562C30.0563 40.425 29.05 41.65 28 42.7875ZM19.8625 36.225C18.2 36.0062 16.625 35.7437 15.1375 35.3937C15.6188 33.95 16.1438 32.4187 16.8 30.8875C17.2813 31.7625 17.7625 32.6812 18.2875 33.5562C18.8125 34.5187 19.3375 35.35 19.8625 36.225ZM16.8 25.0687C16.1438 23.5374 15.6188 22.05 15.1375 20.5625C16.625 20.2125 18.2 19.95 19.8625 19.7312C19.3375 20.5625 18.7688 21.4375 18.2875 22.3562C17.7625 23.275 17.2813 24.1937 16.8 25.0687ZM28 13.2125C29.05 14.35 30.0563 15.575 31.0188 16.8437C30.0125 16.8 29.0063 16.7562 28 16.7562C26.9938 16.7562 25.9875 16.8 24.9813 16.8437C25.9438 15.575 26.95 14.35 28 13.2125ZM37.7125 22.4L36.1375 19.775C37.8 19.9937 39.375 20.2562 40.8625 20.6062C40.3813 22.05 39.8563 23.5812 39.2 25.1125C38.7188 24.1937 38.2375 23.275 37.7125 22.4ZM13.8688 15.3125C13.125 10.7187 13.7375 7.4812 15.5313 6.4312C15.9688 6.1687 16.4938 6.03745 17.0625 6.03745C19.6875 6.03745 22.9688 8.1812 26.25 11.4187C24.7188 13.0812 23.1875 15.0062 21.7 17.1062C19.1625 17.325 16.7563 17.7187 14.4813 18.2C14.2188 17.1937 14.0438 16.2312 13.8688 15.3125ZM3.0625 28C3.0625 25.9437 5.55625 23.7562 9.93125 22.1375C10.8063 21.7875 11.7688 21.4812 12.7313 21.2187C13.4313 23.4062 14.3063 25.725 15.3563 28.0437C14.3063 30.3625 13.3875 32.6375 12.7313 34.825C6.69375 33.075 3.0625 30.45 3.0625 28ZM15.5313 49.5687C13.7375 48.5187 13.125 45.2812 13.8688 40.6875C14 39.7687 14.2188 38.8062 14.4813 37.8C16.7563 38.325 19.1625 38.675 21.7 38.8937C23.1875 40.9937 24.7188 42.875 26.25 44.5812C23.0125 47.775 19.7313 49.9625 17.0625 49.9625C16.4938 49.9625 15.9688 49.8312 15.5313 49.5687ZM42.1313 40.6875C42.875 45.2812 42.2625 48.5187 40.4688 49.5687C40.0313 49.8312 39.5063 49.9625 38.9375 49.9625C36.3125 49.9625 33.0313 47.8187 29.75 44.5812C31.2813 42.9187 32.8125 40.9937 34.3 38.8937C36.8375 38.675 39.2438 38.2812 41.5188 37.8C41.7813 38.8062 41.9563 39.7687 42.1313 40.6875ZM46.0688 33.8625C45.1938 34.2125 44.2313 34.5187 43.2688 34.7812C42.5688 32.5937 41.6938 30.275 40.6438 27.9562C41.6938 25.6375 42.6125 23.3625 43.2688 21.175C49.3063 22.925 52.9375 25.55 52.9375 28C52.9375 30.0562 50.4 32.2437 46.0688 33.8625Z" fill="#868E96"/>
</svg>
